<svg width="19" height="24" viewBox="0 0 19 24" fill="none" xmlns="http://www.w3.org/2000/svg">
<path d="M17.1332 5.22827L17.1332 5.22827L17.1336 5.23227L18.5 20.6314V20.6315V20.6316V20.6317V20.6318V20.6319V20.632V20.6321V20.6322V20.6323V20.6324V20.6325V20.6326V20.6327V20.6328V20.6329V20.633V20.6331V20.6332V20.6333V20.6334V20.6335V20.6336V20.6337V20.6338V20.6339V20.634V20.6341V20.6342V20.6343V20.6344V20.6345V20.6346V20.6347V20.6348V20.6349V20.635V20.6351V20.6352V20.6353V20.6354V20.6355V20.6356V20.6357V20.6358V20.6359V20.636V20.6361V20.6362V20.6363V20.6364V20.6366V20.6367V20.6368V20.6369V20.637V20.6371V20.6372V20.6373V20.6374V20.6375V20.6376V20.6377V20.6378V20.6379V20.638V20.6381V20.6382V20.6383V20.6384V20.6385V20.6386V20.6387V20.6388V20.6389V20.639V20.6391V20.6392V20.6393V20.6394V20.6395V20.6396V20.6397V20.6398V20.6399V20.64V20.6401V20.6402V20.6403V20.6404V20.6405V20.6406V20.6407V20.6408V20.6409V20.641V20.6411V20.6412V20.6413V20.6414V20.6415V20.6416V20.6417V20.6418V20.6419V20.642V20.6421V20.6422V20.6423V20.6424V20.6425V20.6426V20.6427V20.6428V20.6429V20.643V20.6431V20.6432V20.6433V20.6434V20.6435V20.6436V20.6437V20.6438V20.6439V20.644V20.6442V20.6443V20.6444V20.6445V20.6446V20.6447V20.6448V20.6449V20.645V20.6451V20.6452V20.6453V20.6454V20.6455V20.6456V20.6457V20.6458V20.6459V20.646V20.6461V20.6462V20.6463V20.6464V20.6465V20.6466V20.6467V20.6468V20.6469V20.647V20.6471V20.6472V20.6473V20.6474V20.6475V20.6476V20.6477V20.6479V20.648V20.6481V20.6482V20.6483V20.6484V20.6485V20.6486V20.6487V20.6488V20.6489V20.649V20.6491V20.6492V20.6493V20.6494V20.6495V20.6496V20.6497V20.6498V20.6499V20.65V20.6501V20.6502V20.6504V20.6505V20.6506V20.6507V20.6508V20.6509V20.651V20.6511V20.6512V20.6513V20.6514V20.6515V20.6516V20.6517V20.6518V20.6519V20.652V20.6521V20.6523V20.6524V20.6525V20.6526V20.6527V20.6528V20.6529V20.653V20.6531V20.6532V20.6533V20.6534V20.6535V20.6536V20.6537V20.6539V20.654V20.6541V20.6542V20.6543V20.6544V20.6545V20.6546V20.6547V20.6548V20.6549V20.655V20.6551V20.6552V20.6554V20.6555V20.6556V20.6557V20.6558V20.6559V20.656V20.6561V20.6562V20.6563V20.6564V20.6566V20.6567V20.6568V20.6569V20.657V20.6571V20.6572V20.6573V20.6574V20.6575V20.6576V20.6578V20.6579V20.658V20.6581V20.6582V20.6583V20.6584V20.6585V20.6586V20.6588V20.6589V20.659V20.6591V20.6592V20.6593V20.6594V20.6595V20.6596V20.6598V20.6599V20.66V20.6601V20.6602V20.6603V20.6604V20.6605V20.6606V20.6608V20.6609V20.661V20.6611V20.6612V20.6613V20.6614V20.6616V20.6617V20.6618V20.6619V20.662V20.6621V20.6622V20.6623V20.6625V20.6626V20.6627V20.6628V20.6629V20.663V20.6631V20.6633V20.6634V20.6635V20.6636V20.6637C18.5 22.0499 17.2029 23.2795 15.4806 23.2795H3.51943C1.79711 23.2795 0.5 22.0499 0.5 20.6637V20.6636V20.6635V20.6634V20.6633V20.6631V20.663V20.6629V20.6628V20.6627V20.6626V20.6625V20.6623V20.6622V20.6621V20.662V20.6619V20.6618V20.6617V20.6616V20.6614V20.6613V20.6612V20.6611V20.661V20.6609V20.6608V20.6606V20.6605V20.6604V20.6603V20.6602V20.6601V20.66V20.6599V20.6598V20.6596V20.6595V20.6594V20.6593V20.6592V20.6591V20.659V20.6589V20.6588V20.6586V20.6585V20.6584V20.6583V20.6582V20.6581V20.658V20.6579V20.6578V20.6576V20.6575V20.6574V20.6573V20.6572V20.6571V20.657V20.6569V20.6568V20.6567V20.6566V20.6564V20.6563V20.6562V20.6561V20.656V20.6559V20.6558V20.6557V20.6556V20.6555V20.6554V20.6552V20.6551V20.655V20.6549V20.6548V20.6547V20.6546V20.6545V20.6544V20.6543V20.6542V20.6541V20.654V20.6539V20.6537V20.6536V20.6535V20.6534V20.6533V20.6532V20.6531V20.653V20.6529V20.6528V20.6527V20.6526V20.6525V20.6524V20.6523V20.6521V20.652V20.6519V20.6518V20.6517V20.6516V20.6515V20.6514V20.6513V20.6512V20.6511V20.651V20.6509V20.6508V20.6507V20.6506V20.6505V20.6504V20.6502V20.6501V20.65V20.6499V20.6498V20.6497V20.6496V20.6495V20.6494V20.6493V20.6492V20.6491V20.649V20.6489V20.6488V20.6487V20.6486V20.6485V20.6484V20.6483V20.6482V20.6481V20.648V20.6479V20.6477V20.6476V20.6475V20.6474V20.6473V20.6472V20.6471V20.647V20.6469V20.6468V20.6467V20.6466V20.6465V20.6464V20.6463V20.6462V20.6461V20.646V20.6459V20.6458V20.6457V20.6456V20.6455V20.6454V20.6453V20.6452V20.6451V20.645V20.6449V20.6448V20.6447V20.6446V20.6445V20.6444V20.6443V20.6442V20.644V20.6439V20.6438V20.6437V20.6436V20.6435V20.6434V20.6433V20.6432V20.6431V20.643V20.6429V20.6428V20.6427V20.6426V20.6425V20.6424V20.6423V20.6422V20.6421V20.642V20.6419V20.6418V20.6417V20.6416V20.6415V20.6414V20.6413V20.6412V20.6411V20.641V20.6409V20.6408V20.6407V20.6406V20.6405V20.6404V20.6403V20.6402V20.6401V20.64V20.6399V20.6398V20.6397V20.6396V20.6395V20.6394V20.6393V20.6392V20.6391V20.639V20.6389V20.6388V20.6387V20.6386V20.6385V20.6384V20.6383V20.6382V20.6381V20.638V20.6379V20.6378V20.6377V20.6376V20.6375V20.6374V20.6373V20.6372V20.6371V20.637V20.6369V20.6368V20.6367V20.6366V20.6364V20.6363V20.6362V20.6361V20.636V20.6359V20.6358V20.6357V20.6356V20.6355V20.6354V20.6353V20.6352V20.6351V20.635V20.6349V20.6348V20.6347V20.6346V20.6345V20.6344V20.6343V20.6342V20.6341V20.634V20.6339V20.6338V20.6337V20.6336V20.6335V20.6334V20.6333V20.6332V20.6331V20.633V20.6329V20.6328V20.6327V20.6326V20.6325V20.6324V20.6323V20.6322V20.6321V20.632V20.6319V20.6318V20.6317V20.6316V20.6315V20.6314L1.86607 5.23624C1.86611 5.23586 1.86614 5.23548 1.86619 5.2351C1.87139 5.18724 1.9113 5.15155 1.95907 5.15155H4.84352H5.34256L5.34352 4.65251C5.34791 2.36321 7.21182 0.5 9.5 0.5C11.7882 0.5 13.6521 2.36321 13.6565 4.65251L13.6574 5.15155H14.1565H17.0409C17.0982 5.15155 17.1302 5.19046 17.1332 5.22827ZM12.9751 5.15155H13.4764L13.4751 4.65027C13.4695 2.46061 11.6912 0.681347 9.5 0.681347C7.30884 0.681347 5.5305 2.46061 5.52487 4.65027L5.52358 5.15155H6.02487H12.9751ZM0.683308 20.6392L0.681038 20.6647L0.681396 20.6904C0.701141 22.1055 2.05793 23.0933 3.51943 23.0933H15.4806C16.9412 23.0933 18.2988 22.1062 18.3186 20.6953L18.319 20.6697L18.3167 20.6441L16.9975 5.78867L16.957 5.3329H16.4995H14.1565H13.6565V5.8329V7.90518C13.6565 7.95391 13.6145 7.99585 13.5658 7.99585C13.5171 7.99585 13.4751 7.95391 13.4751 7.90518V5.8329V5.3329H12.9751H6.02487H5.52487V5.8329V7.90518C5.52487 7.95391 5.48292 7.99585 5.4342 7.99585C5.38547 7.99585 5.34352 7.95391 5.34352 7.90518V5.8329V5.3329H4.84352H2.50052H2.04296L2.00248 5.78866L0.683308 20.6392Z" fill="black" stroke="#844424"/>
</svg>
