<svg width="100" height="60" viewBox="0 0 100 60" fill="none" xmlns="http://www.w3.org/2000/svg">
<rect width="100" height="60" rx="5" fill="white" fill-opacity="0.7"/>
<path d="M23.9397 19.8881V28.4193H22.8089V19.8881H23.9397ZM29.0901 19.8881L25.5452 23.8666L23.553 25.9349L23.3655 24.7279L24.8655 23.0756L27.7307 19.8881H29.0901ZM28.0003 28.4193L24.8421 24.2592L25.5159 23.3627L29.3479 28.4193H28.0003ZM36.7249 23.8842V24.4232C36.7249 25.0638 36.6448 25.6381 36.4847 26.1459C36.3245 26.6537 36.094 27.0853 35.7932 27.4408C35.4925 27.7963 35.1311 28.0677 34.7093 28.2552C34.2913 28.4427 33.8225 28.5365 33.303 28.5365C32.7991 28.5365 32.3362 28.4427 31.9143 28.2552C31.4964 28.0677 31.1331 27.7963 30.8245 27.4408C30.5198 27.0853 30.2835 26.6537 30.1155 26.1459C29.9475 25.6381 29.8636 25.0638 29.8636 24.4232V23.8842C29.8636 23.2435 29.9456 22.6713 30.1097 22.1674C30.2776 21.6595 30.514 21.2279 30.8186 20.8724C31.1233 20.5131 31.4847 20.2396 31.9026 20.0521C32.3245 19.8646 32.7874 19.7709 33.2913 19.7709C33.8108 19.7709 34.2796 19.8646 34.6975 20.0521C35.1194 20.2396 35.4807 20.5131 35.7815 20.8724C36.0862 21.2279 36.3186 21.6595 36.4788 22.1674C36.6429 22.6713 36.7249 23.2435 36.7249 23.8842ZM35.6057 24.4232V23.8724C35.6057 23.3646 35.553 22.9154 35.4475 22.5248C35.346 22.1342 35.1956 21.806 34.9964 21.5404C34.7972 21.2748 34.553 21.0736 34.264 20.9369C33.9788 20.8002 33.6546 20.7318 33.2913 20.7318C32.9397 20.7318 32.6214 20.8002 32.3362 20.9369C32.055 21.0736 31.8128 21.2748 31.6097 21.5404C31.4104 21.806 31.2561 22.1342 31.1468 22.5248C31.0374 22.9154 30.9827 23.3646 30.9827 23.8724V24.4232C30.9827 24.9349 31.0374 25.3881 31.1468 25.7826C31.2561 26.1732 31.4124 26.5033 31.6155 26.7728C31.8225 27.0385 32.0667 27.2396 32.3479 27.3763C32.6331 27.5131 32.9515 27.5814 33.303 27.5814C33.6702 27.5814 33.9964 27.5131 34.2815 27.3763C34.5667 27.2396 34.8069 27.0385 35.0022 26.7728C35.2015 26.5033 35.3518 26.1732 35.4534 25.7826C35.555 25.3881 35.6057 24.9349 35.6057 24.4232ZM38.7757 19.8881H39.8714L42.6663 26.8431L45.4554 19.8881H46.5569L43.0882 28.4193H42.2327L38.7757 19.8881ZM38.4182 19.8881H39.385L39.5432 25.0912V28.4193H38.4182V19.8881ZM45.9417 19.8881H46.9085V28.4193H45.7835V25.0912L45.9417 19.8881ZM49.2522 19.8881H50.3479L53.1429 26.8431L55.9319 19.8881H57.0335L53.5647 28.4193H52.7093L49.2522 19.8881ZM48.8948 19.8881H49.8616L50.0198 25.0912V28.4193H48.8948V19.8881ZM56.4182 19.8881H57.385V28.4193H56.26V25.0912L56.4182 19.8881ZM64.7913 27.4994V28.4193H60.2737V27.4994H64.7913ZM60.5022 19.8881V28.4193H59.3714V19.8881H60.5022ZM64.1936 23.556V24.476H60.2737V23.556H64.1936ZM64.7327 19.8881V20.8138H60.2737V19.8881H64.7327ZM66.1917 19.8881H69.0159C69.6565 19.8881 70.1975 19.9857 70.639 20.181C71.0843 20.3763 71.4222 20.6654 71.6526 21.0482C71.887 21.4271 72.0042 21.8939 72.0042 22.4486C72.0042 22.8392 71.9241 23.1967 71.764 23.5209C71.6077 23.8412 71.3811 24.1146 71.0843 24.3412C70.7913 24.5638 70.4397 24.7299 70.0296 24.8392L69.7132 24.9623H67.0589L67.0472 24.0424H69.0511C69.4573 24.0424 69.7952 23.972 70.0647 23.8314C70.3343 23.6869 70.5374 23.4935 70.6741 23.2513C70.8108 23.0092 70.8792 22.7416 70.8792 22.4486C70.8792 22.1205 70.8147 21.8334 70.6858 21.5873C70.5569 21.3412 70.3538 21.1517 70.0765 21.0189C69.803 20.8822 69.4495 20.8138 69.0159 20.8138H67.3225V28.4193H66.1917V19.8881ZM71.178 28.4193L69.1038 24.5521L70.2815 24.5463L72.385 28.349V28.4193H71.178ZM35.3772 40.2631C35.3772 40.0638 35.346 39.8881 35.2835 39.7357C35.2249 39.5795 35.1194 39.4388 34.9671 39.3138C34.8186 39.1888 34.6116 39.0697 34.346 38.9564C34.0843 38.8431 33.7522 38.7279 33.3499 38.6107C32.928 38.4857 32.5472 38.347 32.2073 38.1947C31.8675 38.0385 31.5765 37.8607 31.3343 37.6615C31.0921 37.4623 30.9065 37.2338 30.7776 36.976C30.6487 36.7181 30.5843 36.4232 30.5843 36.0912C30.5843 35.7592 30.6526 35.4525 30.7893 35.1713C30.9261 34.89 31.1214 34.6459 31.3753 34.4388C31.6331 34.2279 31.9397 34.0638 32.2952 33.9467C32.6507 33.8295 33.0472 33.7709 33.4847 33.7709C34.1253 33.7709 34.6682 33.8939 35.1136 34.14C35.5628 34.3822 35.9046 34.7006 36.139 35.0951C36.3733 35.4857 36.4905 35.9037 36.4905 36.349H35.3655C35.3655 36.0287 35.2972 35.7455 35.1604 35.4994C35.0237 35.2494 34.8167 35.0541 34.5393 34.9135C34.262 34.7689 33.9104 34.6967 33.4847 34.6967C33.0823 34.6967 32.7503 34.7572 32.4886 34.8783C32.2268 34.9994 32.0315 35.1635 31.9026 35.3705C31.7776 35.5775 31.7151 35.8138 31.7151 36.0795C31.7151 36.2592 31.7522 36.4232 31.8265 36.5717C31.9046 36.7162 32.0237 36.851 32.1839 36.976C32.3479 37.101 32.555 37.2162 32.805 37.3217C33.0589 37.4271 33.3616 37.5287 33.7132 37.6263C34.1975 37.7631 34.6155 37.9154 34.9671 38.0834C35.3186 38.2513 35.6077 38.4408 35.8343 38.6517C36.0647 38.8588 36.2347 39.0951 36.344 39.3607C36.4573 39.6224 36.514 39.9193 36.514 40.2513C36.514 40.599 36.4436 40.9135 36.303 41.1947C36.1624 41.476 35.9612 41.7162 35.6995 41.9154C35.4378 42.1146 35.1233 42.2689 34.7561 42.3783C34.3929 42.4838 33.9866 42.5365 33.5374 42.5365C33.1429 42.5365 32.7542 42.4818 32.3714 42.3724C31.9925 42.2631 31.6468 42.099 31.3343 41.8802C31.0257 41.6615 30.7776 41.392 30.5901 41.0717C30.4065 40.7474 30.3147 40.3724 30.3147 39.9467H31.4397C31.4397 40.2396 31.4964 40.4916 31.6097 40.7025C31.7229 40.9095 31.8772 41.0814 32.0725 41.2181C32.2718 41.3549 32.4964 41.4564 32.7464 41.5228C33.0003 41.5853 33.264 41.6166 33.5374 41.6166C33.9319 41.6166 34.2659 41.5619 34.5393 41.4525C34.8128 41.3431 35.0198 41.1869 35.1604 40.9838C35.305 40.7806 35.3772 40.5404 35.3772 40.2631ZM44.5179 33.8881V42.4193H43.3811L39.0862 35.8392V42.4193H37.9554V33.8881H39.0862L43.3987 40.4857V33.8881H44.5179ZM49.7854 34.6439L46.9612 42.4193H45.8069L49.0589 33.8881H49.803L49.7854 34.6439ZM52.1526 42.4193L49.3225 34.6439L49.305 33.8881H50.0491L53.3128 42.4193H52.1526ZM52.0061 39.2611V40.1869H47.2132V39.2611H52.0061ZM54.4554 33.8881H57.2796C57.9202 33.8881 58.4612 33.9857 58.9026 34.181C59.3479 34.3763 59.6858 34.6654 59.9163 35.0482C60.1507 35.4271 60.2679 35.8939 60.2679 36.4486C60.2679 36.8392 60.1878 37.1967 60.0276 37.5209C59.8714 37.8412 59.6448 38.1146 59.3479 38.3412C59.055 38.5638 58.7034 38.7299 58.2932 38.8392L57.9768 38.9623H55.3225L55.3108 38.0424H57.3147C57.721 38.0424 58.0589 37.972 58.3284 37.8314C58.5979 37.6869 58.8011 37.4935 58.9378 37.2513C59.0745 37.0092 59.1429 36.7416 59.1429 36.4486C59.1429 36.1205 59.0784 35.8334 58.9495 35.5873C58.8206 35.3412 58.6175 35.1517 58.3401 35.0189C58.0667 34.8822 57.7132 34.8138 57.2796 34.8138H55.5862V42.4193H54.4554V33.8881ZM59.4417 42.4193L57.3675 38.5521L58.5452 38.5463L60.6487 42.349V42.4193H59.4417ZM64.5335 33.8881V42.4193H63.4202V33.8881H64.5335ZM67.2757 33.8881V34.8138H60.6839V33.8881H67.2757Z" fill="#9C7664"/>
</svg>
