<svg width="120" height="86" viewBox="0 0 120 86" fill="none" xmlns="http://www.w3.org/2000/svg">
<g filter="url(#filter0_d_546_10)">
<rect x="4" width="112" height="78" rx="5" fill="white" fill-opacity="0.7"/>
<path d="M33.7832 25.1139V33.6451H32.6524V25.1139H33.7832ZM38.9336 25.1139L35.3887 29.0924L33.3965 31.1608L33.209 29.9537L34.709 28.3014L37.5742 25.1139H38.9336ZM37.8438 33.6451L34.6856 29.485L35.3594 28.5885L39.1914 33.6451H37.8438ZM46.5684 29.11V29.649C46.5684 30.2897 46.4883 30.8639 46.3281 31.3717C46.168 31.8795 45.9375 32.3112 45.6367 32.6666C45.336 33.0221 44.9746 33.2936 44.5527 33.4811C44.1348 33.6686 43.666 33.7623 43.1465 33.7623C42.6426 33.7623 42.1797 33.6686 41.7578 33.4811C41.3399 33.2936 40.9766 33.0221 40.668 32.6666C40.3633 32.3112 40.127 31.8795 39.959 31.3717C39.791 30.8639 39.707 30.2897 39.707 29.649V29.11C39.707 28.4694 39.7891 27.8971 39.9531 27.3932C40.1211 26.8854 40.3574 26.4537 40.6621 26.0983C40.9668 25.7389 41.3281 25.4655 41.7461 25.278C42.168 25.0905 42.6309 24.9967 43.1348 24.9967C43.6543 24.9967 44.1231 25.0905 44.541 25.278C44.9629 25.4655 45.3242 25.7389 45.625 26.0983C45.9297 26.4537 46.1621 26.8854 46.3223 27.3932C46.4863 27.8971 46.5684 28.4694 46.5684 29.11ZM45.4492 29.649V29.0983C45.4492 28.5905 45.3965 28.1412 45.291 27.7506C45.1895 27.36 45.0391 27.0319 44.8399 26.7662C44.6406 26.5006 44.3965 26.2994 44.1074 26.1627C43.8223 26.026 43.4981 25.9576 43.1348 25.9576C42.7832 25.9576 42.4649 26.026 42.1797 26.1627C41.8985 26.2994 41.6563 26.5006 41.4531 26.7662C41.2539 27.0319 41.0996 27.36 40.9902 27.7506C40.8809 28.1412 40.8262 28.5905 40.8262 29.0983V29.649C40.8262 30.1608 40.8809 30.6139 40.9902 31.0084C41.0996 31.399 41.2559 31.7291 41.459 31.9987C41.666 32.2643 41.9102 32.4655 42.1914 32.6022C42.4766 32.7389 42.7949 32.8073 43.1465 32.8073C43.5137 32.8073 43.8399 32.7389 44.125 32.6022C44.4102 32.4655 44.6504 32.2643 44.8457 31.9987C45.0449 31.7291 45.1953 31.399 45.2969 31.0084C45.3985 30.6139 45.4492 30.1608 45.4492 29.649ZM48.6192 25.1139H49.7149L52.5098 32.069L55.2988 25.1139H56.4004L52.9317 33.6451H52.0762L48.6192 25.1139ZM48.2617 25.1139H49.2285L49.3867 30.317V33.6451H48.2617V25.1139ZM55.7852 25.1139H56.752V33.6451H55.627V30.317L55.7852 25.1139ZM59.0957 25.1139H60.1914L62.9863 32.069L65.7754 25.1139H66.877L63.4082 33.6451H62.5527L59.0957 25.1139ZM58.7383 25.1139H59.7051L59.8633 30.317V33.6451H58.7383V25.1139ZM66.2617 25.1139H67.2285V33.6451H66.1035V30.317L66.2617 25.1139ZM74.6348 32.7252V33.6451H70.1172V32.7252H74.6348ZM70.3457 25.1139V33.6451H69.2149V25.1139H70.3457ZM74.0371 28.7819V29.7018H70.1172V28.7819H74.0371ZM74.5762 25.1139V26.0397H70.1172V25.1139H74.5762ZM76.0352 25.1139H78.8594C79.5 25.1139 80.041 25.2115 80.4824 25.4069C80.9277 25.6022 81.2656 25.8912 81.4961 26.274C81.7305 26.653 81.8477 27.1198 81.8477 27.6744C81.8477 28.0651 81.7676 28.4225 81.6074 28.7467C81.4512 29.067 81.2246 29.3405 80.9277 29.567C80.6348 29.7897 80.2832 29.9557 79.8731 30.0651L79.5567 30.1881H76.9024L76.8906 29.2682H78.8945C79.3008 29.2682 79.6387 29.1979 79.9082 29.0573C80.1777 28.9127 80.3809 28.7194 80.5176 28.4772C80.6543 28.235 80.7227 27.9674 80.7227 27.6744C80.7227 27.3463 80.6582 27.0592 80.5293 26.8131C80.4004 26.567 80.1973 26.3776 79.9199 26.2448C79.6465 26.108 79.293 26.0397 78.8594 26.0397H77.166V33.6451H76.0352V25.1139ZM81.0215 33.6451L78.9473 29.778L80.125 29.7721L82.2285 33.5748V33.6451H81.0215ZM45.2207 45.4889C45.2207 45.2897 45.1895 45.1139 45.127 44.9615C45.0684 44.8053 44.9629 44.6647 44.8106 44.5397C44.6621 44.4147 44.4551 44.2955 44.1895 44.1823C43.9277 44.069 43.5957 43.9537 43.1934 43.8365C42.7715 43.7115 42.3906 43.5729 42.0508 43.4205C41.711 43.2643 41.4199 43.0865 41.1777 42.8873C40.9356 42.6881 40.75 42.4596 40.6211 42.2018C40.4922 41.944 40.4277 41.649 40.4277 41.317C40.4277 40.985 40.4961 40.6783 40.6328 40.3971C40.7695 40.1158 40.9649 39.8717 41.2188 39.6647C41.4766 39.4537 41.7832 39.2897 42.1387 39.1725C42.4942 39.0553 42.8906 38.9967 43.3281 38.9967C43.9688 38.9967 44.5117 39.1198 44.957 39.3658C45.4063 39.608 45.7481 39.9264 45.9824 40.3209C46.2168 40.7115 46.334 41.1295 46.334 41.5748H45.209C45.209 41.2545 45.1406 40.9713 45.0039 40.7252C44.8672 40.4752 44.6602 40.2799 44.3828 40.1393C44.1055 39.9948 43.7539 39.9225 43.3281 39.9225C42.9258 39.9225 42.5938 39.983 42.332 40.1041C42.0703 40.2252 41.875 40.3893 41.7461 40.5963C41.6211 40.8033 41.5586 41.0397 41.5586 41.3053C41.5586 41.485 41.5957 41.649 41.6699 41.7975C41.7481 41.942 41.8672 42.0768 42.0274 42.2018C42.1914 42.3268 42.3985 42.442 42.6485 42.5475C42.9024 42.653 43.2051 42.7545 43.5567 42.8522C44.041 42.9889 44.459 43.1412 44.8106 43.3092C45.1621 43.4772 45.4512 43.6666 45.6777 43.8776C45.9082 44.0846 46.0781 44.3209 46.1875 44.5865C46.3008 44.8483 46.3574 45.1451 46.3574 45.4772C46.3574 45.8248 46.2871 46.1393 46.1465 46.4205C46.0059 46.7018 45.8047 46.942 45.543 47.1412C45.2813 47.3405 44.9668 47.4948 44.5996 47.6041C44.2363 47.7096 43.8301 47.7623 43.3809 47.7623C42.9863 47.7623 42.5977 47.7076 42.2149 47.5983C41.836 47.4889 41.4902 47.3248 41.1777 47.1061C40.8692 46.8873 40.6211 46.6178 40.4336 46.2975C40.25 45.9733 40.1582 45.5983 40.1582 45.1725H41.2832C41.2832 45.4655 41.3399 45.7174 41.4531 45.9283C41.5664 46.1354 41.7207 46.3073 41.916 46.444C42.1152 46.5807 42.3399 46.6823 42.5899 46.7487C42.8438 46.8112 43.1074 46.8424 43.3809 46.8424C43.7754 46.8424 44.1094 46.7877 44.3828 46.6783C44.6563 46.569 44.8633 46.4127 45.0039 46.2096C45.1485 46.0065 45.2207 45.7662 45.2207 45.4889ZM54.3613 39.1139V47.6451H53.2246L48.9297 41.0651V47.6451H47.7988V39.1139H48.9297L53.2422 45.7115V39.1139H54.3613ZM59.6289 39.8698L56.8047 47.6451H55.6504L58.9024 39.1139H59.6465L59.6289 39.8698ZM61.9961 47.6451L59.166 39.8698L59.1485 39.1139H59.8926L63.1563 47.6451H61.9961ZM61.8496 44.4869V45.4127H57.0567V44.4869H61.8496ZM64.2988 39.1139H67.1231C67.7637 39.1139 68.3047 39.2115 68.7461 39.4069C69.1914 39.6022 69.5293 39.8912 69.7598 40.274C69.9942 40.653 70.1113 41.1198 70.1113 41.6744C70.1113 42.0651 70.0313 42.4225 69.8711 42.7467C69.7149 43.067 69.4883 43.3405 69.1914 43.567C68.8985 43.7897 68.5469 43.9557 68.1367 44.0651L67.8203 44.1881H65.166L65.1543 43.2682H67.1582C67.5645 43.2682 67.9024 43.1979 68.1719 43.0573C68.4414 42.9127 68.6445 42.7194 68.7813 42.4772C68.918 42.235 68.9863 41.9674 68.9863 41.6744C68.9863 41.3463 68.9219 41.0592 68.793 40.8131C68.6641 40.567 68.461 40.3776 68.1836 40.2448C67.9102 40.108 67.5567 40.0397 67.1231 40.0397H65.4297V47.6451H64.2988V39.1139ZM69.2852 47.6451L67.211 43.778L68.3887 43.7721L70.4922 47.5748V47.6451H69.2852ZM74.377 39.1139V47.6451H73.2637V39.1139H74.377ZM77.1192 39.1139V40.0397H70.5274V39.1139H77.1192Z" fill="#9C7664"/>
</g>
<defs>
<filter id="filter0_d_546_10" x="0" y="0" width="120" height="86" filterUnits="userSpaceOnUse" color-interpolation-filters="sRGB">
<feFlood flood-opacity="0" result="BackgroundImageFix"/>
<feColorMatrix in="SourceAlpha" type="matrix" values="0 0 0 0 0 0 0 0 0 0 0 0 0 0 0 0 0 0 127 0" result="hardAlpha"/>
<feOffset dy="4"/>
<feGaussianBlur stdDeviation="2"/>
<feComposite in2="hardAlpha" operator="out"/>
<feColorMatrix type="matrix" values="0 0 0 0 0 0 0 0 0 0 0 0 0 0 0 0 0 0 0.25 0"/>
<feBlend mode="normal" in2="BackgroundImageFix" result="effect1_dropShadow_546_10"/>
<feBlend mode="normal" in="SourceGraphic" in2="effect1_dropShadow_546_10" result="shape"/>
</filter>
</defs>
</svg>
