<svg width="112" height="78" viewBox="0 0 112 78" fill="none" xmlns="http://www.w3.org/2000/svg">
<rect width="112" height="78" rx="5" fill="white" fill-opacity="0.92"/>
<path d="M29.7832 25.1139V33.6451H28.6524V25.1139H29.7832ZM34.9336 25.1139L31.3887 29.0924L29.3965 31.1608L29.209 29.9537L30.709 28.3014L33.5742 25.1139H34.9336ZM33.8438 33.6451L30.6856 29.485L31.3594 28.5885L35.1914 33.6451H33.8438ZM42.5684 29.11V29.649C42.5684 30.2897 42.4883 30.8639 42.3281 31.3717C42.168 31.8795 41.9375 32.3112 41.6367 32.6666C41.336 33.0221 40.9746 33.2936 40.5527 33.4811C40.1348 33.6686 39.666 33.7623 39.1465 33.7623C38.6426 33.7623 38.1797 33.6686 37.7578 33.4811C37.3399 33.2936 36.9766 33.0221 36.668 32.6666C36.3633 32.3112 36.127 31.8795 35.959 31.3717C35.791 30.8639 35.707 30.2897 35.707 29.649V29.11C35.707 28.4694 35.7891 27.8971 35.9531 27.3932C36.1211 26.8854 36.3574 26.4537 36.6621 26.0983C36.9668 25.7389 37.3281 25.4655 37.7461 25.278C38.168 25.0905 38.6309 24.9967 39.1348 24.9967C39.6543 24.9967 40.1231 25.0905 40.541 25.278C40.9629 25.4655 41.3242 25.7389 41.625 26.0983C41.9297 26.4537 42.1621 26.8854 42.3223 27.3932C42.4863 27.8971 42.5684 28.4694 42.5684 29.11ZM41.4492 29.649V29.0983C41.4492 28.5905 41.3965 28.1412 41.291 27.7506C41.1895 27.36 41.0391 27.0319 40.8399 26.7662C40.6406 26.5006 40.3965 26.2994 40.1074 26.1627C39.8223 26.026 39.4981 25.9576 39.1348 25.9576C38.7832 25.9576 38.4649 26.026 38.1797 26.1627C37.8985 26.2994 37.6563 26.5006 37.4531 26.7662C37.2539 27.0319 37.0996 27.36 36.9902 27.7506C36.8809 28.1412 36.8262 28.5905 36.8262 29.0983V29.649C36.8262 30.1608 36.8809 30.6139 36.9902 31.0084C37.0996 31.399 37.2559 31.7291 37.459 31.9987C37.666 32.2643 37.9102 32.4655 38.1914 32.6022C38.4766 32.7389 38.7949 32.8073 39.1465 32.8073C39.5137 32.8073 39.8399 32.7389 40.125 32.6022C40.4102 32.4655 40.6504 32.2643 40.8457 31.9987C41.0449 31.7291 41.1953 31.399 41.2969 31.0084C41.3985 30.6139 41.4492 30.1608 41.4492 29.649ZM44.6192 25.1139H45.7149L48.5098 32.069L51.2988 25.1139H52.4004L48.9317 33.6451H48.0762L44.6192 25.1139ZM44.2617 25.1139H45.2285L45.3867 30.317V33.6451H44.2617V25.1139ZM51.7852 25.1139H52.752V33.6451H51.627V30.317L51.7852 25.1139ZM55.0957 25.1139H56.1914L58.9863 32.069L61.7754 25.1139H62.877L59.4082 33.6451H58.5527L55.0957 25.1139ZM54.7383 25.1139H55.7051L55.8633 30.317V33.6451H54.7383V25.1139ZM62.2617 25.1139H63.2285V33.6451H62.1035V30.317L62.2617 25.1139ZM70.6348 32.7252V33.6451H66.1172V32.7252H70.6348ZM66.3457 25.1139V33.6451H65.2149V25.1139H66.3457ZM70.0371 28.7819V29.7018H66.1172V28.7819H70.0371ZM70.5762 25.1139V26.0397H66.1172V25.1139H70.5762ZM72.0352 25.1139H74.8594C75.5 25.1139 76.041 25.2115 76.4824 25.4069C76.9277 25.6022 77.2656 25.8912 77.4961 26.274C77.7305 26.653 77.8477 27.1198 77.8477 27.6744C77.8477 28.0651 77.7676 28.4225 77.6074 28.7467C77.4512 29.067 77.2246 29.3405 76.9277 29.567C76.6348 29.7897 76.2832 29.9557 75.8731 30.0651L75.5567 30.1881H72.9024L72.8906 29.2682H74.8945C75.3008 29.2682 75.6387 29.1979 75.9082 29.0573C76.1777 28.9127 76.3809 28.7194 76.5176 28.4772C76.6543 28.235 76.7227 27.9674 76.7227 27.6744C76.7227 27.3463 76.6582 27.0592 76.5293 26.8131C76.4004 26.567 76.1973 26.3776 75.9199 26.2448C75.6465 26.108 75.293 26.0397 74.8594 26.0397H73.166V33.6451H72.0352V25.1139ZM77.0215 33.6451L74.9473 29.778L76.125 29.7721L78.2285 33.5748V33.6451H77.0215ZM41.2207 45.4889C41.2207 45.2897 41.1895 45.1139 41.127 44.9615C41.0684 44.8053 40.9629 44.6647 40.8106 44.5397C40.6621 44.4147 40.4551 44.2955 40.1895 44.1823C39.9277 44.069 39.5957 43.9537 39.1934 43.8365C38.7715 43.7115 38.3906 43.5729 38.0508 43.4205C37.711 43.2643 37.4199 43.0865 37.1777 42.8873C36.9356 42.6881 36.75 42.4596 36.6211 42.2018C36.4922 41.944 36.4277 41.649 36.4277 41.317C36.4277 40.985 36.4961 40.6783 36.6328 40.3971C36.7695 40.1158 36.9649 39.8717 37.2188 39.6647C37.4766 39.4537 37.7832 39.2897 38.1387 39.1725C38.4942 39.0553 38.8906 38.9967 39.3281 38.9967C39.9688 38.9967 40.5117 39.1198 40.957 39.3658C41.4063 39.608 41.7481 39.9264 41.9824 40.3209C42.2168 40.7115 42.334 41.1295 42.334 41.5748H41.209C41.209 41.2545 41.1406 40.9713 41.0039 40.7252C40.8672 40.4752 40.6602 40.2799 40.3828 40.1393C40.1055 39.9948 39.7539 39.9225 39.3281 39.9225C38.9258 39.9225 38.5938 39.983 38.332 40.1041C38.0703 40.2252 37.875 40.3893 37.7461 40.5963C37.6211 40.8033 37.5586 41.0397 37.5586 41.3053C37.5586 41.485 37.5957 41.649 37.6699 41.7975C37.7481 41.942 37.8672 42.0768 38.0274 42.2018C38.1914 42.3268 38.3985 42.442 38.6485 42.5475C38.9024 42.653 39.2051 42.7545 39.5567 42.8522C40.041 42.9889 40.459 43.1412 40.8106 43.3092C41.1621 43.4772 41.4512 43.6666 41.6777 43.8776C41.9082 44.0846 42.0781 44.3209 42.1875 44.5865C42.3008 44.8483 42.3574 45.1451 42.3574 45.4772C42.3574 45.8248 42.2871 46.1393 42.1465 46.4205C42.0059 46.7018 41.8047 46.942 41.543 47.1412C41.2813 47.3405 40.9668 47.4948 40.5996 47.6041C40.2363 47.7096 39.8301 47.7623 39.3809 47.7623C38.9863 47.7623 38.5977 47.7076 38.2149 47.5983C37.836 47.4889 37.4902 47.3248 37.1777 47.1061C36.8692 46.8873 36.6211 46.6178 36.4336 46.2975C36.25 45.9733 36.1582 45.5983 36.1582 45.1725H37.2832C37.2832 45.4655 37.3399 45.7174 37.4531 45.9283C37.5664 46.1354 37.7207 46.3073 37.916 46.444C38.1152 46.5807 38.3399 46.6823 38.5899 46.7487C38.8438 46.8112 39.1074 46.8424 39.3809 46.8424C39.7754 46.8424 40.1094 46.7877 40.3828 46.6783C40.6563 46.569 40.8633 46.4127 41.0039 46.2096C41.1485 46.0065 41.2207 45.7662 41.2207 45.4889ZM50.3613 39.1139V47.6451H49.2246L44.9297 41.0651V47.6451H43.7988V39.1139H44.9297L49.2422 45.7115V39.1139H50.3613ZM55.6289 39.8698L52.8047 47.6451H51.6504L54.9024 39.1139H55.6465L55.6289 39.8698ZM57.9961 47.6451L55.166 39.8698L55.1485 39.1139H55.8926L59.1563 47.6451H57.9961ZM57.8496 44.4869V45.4127H53.0567V44.4869H57.8496ZM60.2988 39.1139H63.1231C63.7637 39.1139 64.3047 39.2115 64.7461 39.4069C65.1914 39.6022 65.5293 39.8912 65.7598 40.274C65.9942 40.653 66.1113 41.1198 66.1113 41.6744C66.1113 42.0651 66.0313 42.4225 65.8711 42.7467C65.7149 43.067 65.4883 43.3405 65.1914 43.567C64.8985 43.7897 64.5469 43.9557 64.1367 44.0651L63.8203 44.1881H61.166L61.1543 43.2682H63.1582C63.5645 43.2682 63.9024 43.1979 64.1719 43.0573C64.4414 42.9127 64.6445 42.7194 64.7813 42.4772C64.918 42.235 64.9863 41.9674 64.9863 41.6744C64.9863 41.3463 64.9219 41.0592 64.793 40.8131C64.6641 40.567 64.461 40.3776 64.1836 40.2448C63.9102 40.108 63.5567 40.0397 63.1231 40.0397H61.4297V47.6451H60.2988V39.1139ZM65.2852 47.6451L63.211 43.778L64.3887 43.7721L66.4922 47.5748V47.6451H65.2852ZM70.377 39.1139V47.6451H69.2637V39.1139H70.377ZM73.1192 39.1139V40.0397H66.5274V39.1139H73.1192Z" fill="#9C7664"/>
</svg>
