<svg width="63" height="62" viewBox="0 0 63 62" fill="none" xmlns="http://www.w3.org/2000/svg">
<path d="M28.7571 6.19109C29.8114 3.81134 33.1886 3.81134 34.2429 6.19109L36.4863 11.2549C37.1756 12.8107 39.0196 13.4823 40.548 12.7342L45.5843 10.2693C47.9347 9.11892 50.5283 11.3191 49.7767 13.8256L48.2358 18.9637C47.7402 20.6166 48.7377 22.3459 50.4167 22.7443L55.7252 24.0041C58.2893 24.6126 58.8792 27.9946 56.6724 29.4351L52.1744 32.3714C50.7224 33.3193 50.374 35.2971 51.4147 36.684L54.6168 40.9517C56.1941 43.0539 54.4978 46.0241 51.8858 45.7339L46.3708 45.121C44.6683 44.9318 43.1534 46.204 43.0454 47.9135L42.7022 53.3469C42.5378 55.9485 39.362 57.117 37.5507 55.2423L33.6575 51.2129C32.4781 49.9923 30.5219 49.9923 29.3425 51.2129L25.4493 55.2423C23.638 57.117 20.4622 55.9485 20.2978 53.3469L19.9546 47.9135C19.8466 46.204 18.3317 44.9318 16.6292 45.121L11.1142 45.7339C8.50217 46.0241 6.80591 43.0539 8.3832 40.9517L11.5853 36.684C12.626 35.2971 12.2776 33.3193 10.8256 32.3714L6.32761 29.4351C4.12083 27.9946 4.71067 24.6126 7.27481 24.0041L12.5833 22.7443C14.2623 22.3459 15.2598 20.6166 14.7642 18.9637L13.2233 13.8256C12.4717 11.3191 15.0653 9.11891 17.4157 10.2693L22.452 12.7342C23.9804 13.4823 25.8244 12.8107 26.5137 11.2549L28.7571 6.19109Z" fill="#E86C31"/>
<path d="M32.874 25.0469L31.1514 35H30.3516L26.2637 26.4619L24.7803 35H23.9531L25.6689 25.0469H26.4688L30.5703 33.585L32.0537 25.0469H32.874ZM35.6699 34.2275L39.0537 27.6104H39.9424L35.4375 36.1895C35.319 36.4219 35.1868 36.6452 35.041 36.8594C34.8952 37.0781 34.7311 37.2718 34.5488 37.4404C34.3665 37.6136 34.1592 37.748 33.9268 37.8438C33.6989 37.944 33.4414 37.9964 33.1543 38.001C33.0495 37.9964 32.9424 37.985 32.833 37.9668C32.7236 37.9531 32.6188 37.9326 32.5186 37.9053L32.5732 37.2148C32.6416 37.224 32.71 37.2331 32.7783 37.2422C32.8421 37.2559 32.9059 37.2627 32.9697 37.2627C33.2751 37.2718 33.5394 37.2148 33.7627 37.0918C33.986 36.9733 34.1797 36.8115 34.3438 36.6064C34.5124 36.4014 34.6605 36.1735 34.7881 35.9229L35.6699 34.2275ZM34.7266 27.5967L35.9297 33.9883L35.998 34.8291L35.3828 35.1572L33.8857 27.5967H34.7266Z" fill="white"/>
</svg>
