<svg width="60" height="24" viewBox="0 0 60 24" fill="none" xmlns="http://www.w3.org/2000/svg">
<rect width="60" height="24" rx="4" fill="#B73A52"/>
<path d="M15.7515 6.61823L14.0356 16.5714H13.2222L14.9448 6.61823H15.7515ZM19.0601 6.61823L18.9438 7.34283H11.5132L11.6362 6.61823H19.0601ZM20.8853 9.17487L19.6069 16.5714H18.8071L20.0854 9.17487H20.8853ZM20.3179 7.04205C20.3224 6.88711 20.3794 6.75494 20.4888 6.64557C20.5981 6.53619 20.7303 6.48151 20.8853 6.48151C21.0448 6.47695 21.1746 6.52936 21.2749 6.63873C21.3797 6.74811 21.4253 6.88027 21.4116 7.03522C21.4071 7.18561 21.3478 7.31549 21.2339 7.42487C21.12 7.52968 20.9878 7.58209 20.8374 7.58209C20.6825 7.58665 20.5549 7.53652 20.4546 7.4317C20.3543 7.32688 20.3088 7.197 20.3179 7.04205ZM24.4673 6.07135L22.6558 16.5714H21.856L23.6675 6.07135H24.4673ZM26.6138 6.07135H27.4204L25.8413 15.17L25.5474 16.5714H24.7954L26.6138 6.07135ZM31.2417 12.7842L31.2212 12.9278C31.1528 13.3653 31.0366 13.8074 30.8726 14.254C30.7131 14.7006 30.4989 15.1107 30.23 15.4844C29.9611 15.8581 29.633 16.1589 29.2456 16.3868C28.8628 16.6101 28.4139 16.7172 27.8989 16.7081C27.507 16.7081 27.1561 16.6306 26.8462 16.4756C26.5363 16.3161 26.2743 16.1042 26.0601 15.8399C25.8504 15.571 25.6932 15.2657 25.5884 14.9239C25.4881 14.5821 25.4494 14.2221 25.4722 13.8438L25.7661 12.0186C25.8573 11.6267 25.9985 11.2507 26.1899 10.8907C26.3813 10.5307 26.6206 10.2116 26.9077 9.93365C27.1948 9.6511 27.5184 9.43007 27.8784 9.27057C28.243 9.10651 28.6372 9.02903 29.061 9.03815C29.5715 9.0427 29.9839 9.16119 30.2983 9.39362C30.6128 9.62604 30.8452 9.9291 30.9956 10.3028C31.1506 10.6765 31.244 11.0821 31.2759 11.5196C31.3078 11.9525 31.2964 12.3741 31.2417 12.7842ZM30.4077 12.9278L30.4351 12.7774C30.4806 12.4675 30.4989 12.1394 30.4897 11.793C30.4852 11.4421 30.4328 11.114 30.3325 10.8087C30.2368 10.4988 30.0728 10.2458 29.8403 10.0499C29.6125 9.8539 29.2935 9.75364 28.8833 9.74908C28.5688 9.74453 28.2681 9.79921 27.981 9.91315C27.6984 10.0225 27.4386 10.1752 27.2017 10.3712C26.9692 10.5671 26.7687 10.795 26.6001 11.0547C26.4315 11.3145 26.3062 11.5925 26.2241 11.8887L25.8618 14.0215C25.8436 14.3952 25.9188 14.7302 26.0874 15.0264C26.2606 15.3227 26.4953 15.5574 26.7915 15.7305C27.0923 15.8991 27.4204 15.9857 27.7759 15.9903C28.1951 15.9994 28.5575 15.9128 28.8628 15.7305C29.1681 15.5437 29.4256 15.2976 29.6353 14.9922C29.8449 14.6869 30.0112 14.3542 30.1343 13.9942C30.2619 13.6296 30.353 13.2741 30.4077 12.9278ZM37.2437 14.8282L38.2144 9.17487H39.021L37.7427 16.5714H36.9702L37.2437 14.8282ZM37.606 13.4952L38.0161 13.4815C37.9478 13.9281 37.8293 14.3497 37.6606 14.7462C37.4966 15.1381 37.2801 15.4822 37.0112 15.7784C36.7424 16.0746 36.4188 16.307 36.0405 16.4756C35.6623 16.6397 35.2271 16.7172 34.7349 16.7081C34.3201 16.7035 33.9761 16.626 33.7026 16.4756C33.4292 16.3253 33.2173 16.1202 33.0669 15.8604C32.9165 15.5961 32.8208 15.2976 32.7798 14.9649C32.7388 14.6277 32.741 14.2745 32.7866 13.9053L33.5933 9.17487H34.3931L33.5864 13.9258C33.55 14.1811 33.5386 14.4317 33.5522 14.6778C33.5705 14.9193 33.6229 15.1381 33.7095 15.334C33.8006 15.53 33.9373 15.6872 34.1196 15.8057C34.3065 15.9242 34.5503 15.9857 34.8511 15.9903C35.3752 15.9994 35.8263 15.8969 36.2046 15.6827C36.5828 15.4639 36.8882 15.1654 37.1206 14.7872C37.3576 14.4089 37.5194 13.9783 37.606 13.4952ZM44.7222 15.1016L46.2876 6.07135H47.0874L45.269 16.5714H44.5239L44.7222 15.1016ZM40.1147 12.9756L40.1353 12.8321C40.2036 12.3855 40.3198 11.9389 40.4839 11.4922C40.6479 11.0411 40.8667 10.6286 41.1401 10.2549C41.4136 9.88125 41.744 9.58274 42.1313 9.35944C42.5233 9.13613 42.9767 9.02903 43.4917 9.03815C43.8973 9.0427 44.2528 9.12929 44.5581 9.29791C44.8634 9.46198 45.1164 9.68528 45.3169 9.96783C45.522 10.2504 45.6701 10.5694 45.7612 10.9249C45.8569 11.2758 45.8934 11.6404 45.8706 12.0186L45.5767 13.8438C45.4946 14.2357 45.3556 14.6049 45.1597 14.9512C44.9637 15.2976 44.7222 15.6052 44.4351 15.8741C44.1525 16.1384 43.8289 16.3458 43.4644 16.4962C43.1043 16.6465 42.717 16.7172 42.3022 16.7081C41.8055 16.7035 41.3999 16.5827 41.0854 16.3458C40.7756 16.1088 40.5409 15.8034 40.3813 15.4297C40.2218 15.0561 40.1239 14.6527 40.0874 14.2198C40.0555 13.7868 40.0646 13.3721 40.1147 12.9756ZM40.9556 12.8253L40.9351 12.9688C40.8895 13.2787 40.869 13.6068 40.8735 13.9532C40.8781 14.2995 40.9282 14.6277 41.0239 14.9376C41.1242 15.2429 41.2905 15.4936 41.5229 15.6895C41.7554 15.8855 42.0721 15.988 42.4731 15.9971C42.8696 16.0017 43.2479 15.9197 43.6079 15.751C43.9679 15.5779 44.2824 15.3409 44.5513 15.0401C44.8247 14.7393 45.0161 14.3998 45.1255 14.0215L45.4946 11.8887C45.5129 11.6016 45.4787 11.3305 45.3921 11.0753C45.3101 10.82 45.1847 10.5945 45.0161 10.3985C44.8475 10.2025 44.6424 10.0476 44.4009 9.93365C44.1639 9.81517 43.8996 9.75592 43.6079 9.75592C43.1932 9.74681 42.8309 9.83567 42.521 10.0225C42.2157 10.2048 41.9559 10.4486 41.7417 10.754C41.5275 11.0547 41.3566 11.3874 41.229 11.752C41.1014 12.112 41.0103 12.4698 40.9556 12.8253Z" fill="white"/>
</svg>
