<svg width="30" height="12" viewBox="0 0 30 12" fill="none" xmlns="http://www.w3.org/2000/svg">
<rect width="30" height="12" rx="2" fill="#B73A52"/>
<path d="M7.26685 3.09821L6.28638 8.78571H5.82153L6.80591 3.09821H7.26685ZM9.15747 3.09821L9.09106 3.51227H4.84497L4.91528 3.09821H9.15747ZM10.2004 4.55914L9.46997 8.78571H9.01294L9.74341 4.55914H10.2004ZM9.87622 3.34039C9.87882 3.25185 9.91138 3.17633 9.97388 3.11383C10.0364 3.05133 10.1119 3.02008 10.2004 3.02008C10.2916 3.01748 10.3658 3.04742 10.4231 3.10992C10.483 3.17242 10.509 3.24795 10.5012 3.33649C10.4986 3.42242 10.4648 3.49664 10.3997 3.55914C10.3346 3.61904 10.259 3.64899 10.1731 3.64899C10.0846 3.65159 10.0116 3.62295 9.95435 3.56305C9.89705 3.50315 9.87101 3.42893 9.87622 3.34039ZM12.2473 2.78571L11.2122 8.78571H10.7551L11.7903 2.78571H12.2473ZM13.4739 2.78571H13.9348L13.0325 7.98492L12.8645 8.78571H12.4348L13.4739 2.78571ZM16.1184 6.62164L16.1067 6.70367C16.0676 6.95367 16.0012 7.20628 15.9075 7.46149C15.8163 7.7167 15.6939 7.95107 15.5403 8.16461C15.3866 8.37815 15.1991 8.55003 14.9778 8.68024C14.759 8.80784 14.5025 8.86904 14.2083 8.86383C13.9843 8.86383 13.7838 8.81956 13.6067 8.73102C13.4296 8.63987 13.2799 8.51878 13.1575 8.36774C13.0377 8.21409 12.9478 8.03961 12.8879 7.8443C12.8306 7.64899 12.8085 7.44326 12.8215 7.22711L12.9895 6.18414C13.0416 5.96018 13.1223 5.74534 13.2317 5.53961C13.3411 5.33388 13.4778 5.15159 13.6418 4.99274C13.8059 4.83128 13.9908 4.70498 14.1965 4.61383C14.4049 4.52008 14.6301 4.47581 14.8723 4.48102C15.164 4.48362 15.3997 4.55133 15.5793 4.68414C15.759 4.81696 15.8918 4.99013 15.9778 5.20367C16.0663 5.41722 16.1197 5.64899 16.1379 5.89899C16.1562 6.14638 16.1497 6.38727 16.1184 6.62164ZM15.6418 6.70367L15.6575 6.61774C15.6835 6.44065 15.6939 6.25315 15.6887 6.05524C15.6861 5.85472 15.6562 5.66722 15.5989 5.49274C15.5442 5.31565 15.4504 5.17112 15.3176 5.05914C15.1874 4.94716 15.0051 4.88987 14.7708 4.88727C14.5911 4.88466 14.4192 4.91591 14.2551 4.98102C14.0937 5.04352 13.9452 5.13076 13.8098 5.24274C13.677 5.35472 13.5624 5.48492 13.4661 5.63336C13.3697 5.7818 13.2981 5.94065 13.2512 6.10992L13.0442 7.32867C13.0338 7.54222 13.0767 7.73362 13.1731 7.90289C13.2721 8.07216 13.4062 8.20628 13.5754 8.30524C13.7473 8.40159 13.9348 8.45107 14.1379 8.45367C14.3775 8.45888 14.5846 8.4094 14.759 8.30524C14.9335 8.19847 15.0806 8.05784 15.2004 7.88336C15.3202 7.70888 15.4153 7.51878 15.4856 7.31305C15.5585 7.10472 15.6106 6.90159 15.6418 6.70367ZM19.5481 7.78961L20.1028 4.55914H20.5637L19.8333 8.78571H19.3918L19.5481 7.78961ZM19.7551 7.02789L19.9895 7.02008C19.9504 7.27529 19.8827 7.51617 19.7864 7.74274C19.6926 7.9667 19.5689 8.16331 19.4153 8.33258C19.2616 8.50185 19.0767 8.63466 18.8606 8.73102C18.6444 8.82477 18.3958 8.86904 18.1145 8.86383C17.8775 8.86123 17.6809 8.81696 17.5247 8.73102C17.3684 8.64508 17.2473 8.52789 17.1614 8.37946C17.0754 8.22841 17.0208 8.05784 16.9973 7.86774C16.9739 7.67503 16.9752 7.47321 17.0012 7.26227L17.4622 4.55914H17.9192L17.4583 7.27399C17.4374 7.41982 17.4309 7.56305 17.4387 7.70367C17.4491 7.8417 17.4791 7.9667 17.5286 8.07867C17.5806 8.19065 17.6588 8.2805 17.7629 8.34821C17.8697 8.41591 18.009 8.45107 18.1809 8.45367C18.4804 8.45888 18.7382 8.40029 18.9543 8.27789C19.1705 8.15289 19.345 7.98232 19.4778 7.76617C19.6132 7.55003 19.7056 7.30393 19.7551 7.02789ZM23.8215 7.94586L24.7161 2.78571H25.1731L24.134 8.78571H23.7083L23.8215 7.94586ZM21.1887 6.73102L21.2004 6.64899C21.2395 6.39378 21.3059 6.13857 21.3997 5.88336C21.4934 5.62555 21.6184 5.38987 21.7747 5.17633C21.9309 4.96279 22.1197 4.79222 22.3411 4.66461C22.565 4.53701 22.8241 4.47581 23.1184 4.48102C23.3502 4.48362 23.5533 4.5331 23.7278 4.62946C23.9023 4.72321 24.0468 4.85081 24.1614 5.01227C24.2786 5.17373 24.3632 5.35602 24.4153 5.55914C24.47 5.75966 24.4908 5.968 24.4778 6.18414L24.3098 7.22711C24.2629 7.45107 24.1835 7.66201 24.0715 7.85992C23.9596 8.05784 23.8215 8.23362 23.6575 8.38727C23.496 8.53831 23.3111 8.6568 23.1028 8.74274C22.8971 8.82867 22.6757 8.86904 22.4387 8.86383C22.1549 8.86123 21.9231 8.79222 21.7434 8.6568C21.5663 8.52138 21.4322 8.3469 21.3411 8.13336C21.2499 7.91982 21.1939 7.68935 21.1731 7.44196C21.1549 7.19456 21.1601 6.95758 21.1887 6.73102ZM21.6692 6.64508L21.6575 6.72711C21.6314 6.9042 21.6197 7.0917 21.6223 7.28961C21.6249 7.48753 21.6536 7.67503 21.7083 7.85211C21.7655 8.02659 21.8606 8.16982 21.9934 8.2818C22.1262 8.39378 22.3072 8.45237 22.5364 8.45758C22.7629 8.46018 22.9791 8.41331 23.1848 8.31696C23.3905 8.218 23.5702 8.08258 23.7239 7.91071C23.8801 7.73883 23.9895 7.54482 24.052 7.32867L24.2629 6.10992C24.2734 5.94586 24.2538 5.79091 24.2043 5.64508C24.1575 5.49925 24.0859 5.37034 23.9895 5.25836C23.8931 5.14638 23.776 5.05784 23.6379 4.99274C23.5025 4.92503 23.3515 4.89117 23.1848 4.89117C22.9478 4.88597 22.7408 4.93675 22.5637 5.04352C22.3892 5.14768 22.2408 5.28701 22.1184 5.46149C21.996 5.63336 21.8984 5.82347 21.8254 6.0318C21.7525 6.23753 21.7004 6.44196 21.6692 6.64508Z" fill="white"/>
</svg>
