<svg id="Layer_1" data-name="Layer 1" xmlns="http://www.w3.org/2000/svg" viewBox="0 0 1350 820">
  <g>
    <path d="M703.34,2.63c-7.55,6.72-18.15,13.9-23,23-14.81,27.77-22.12,58.72-27.15,89.58-3,18.23-3.78,36.73-6.49,55a158.73,158.73,0,0,1-8,31.53c-2.27,6.2-6.31,11.66-8.61,17.87-.85,2.3-2.63,6.16-1.66,8.68.8,2.1,3.94,3.35,6.56,4.87,3.5,2,2.67.18,3.88-4,2.06-7.11,5-7.88,8-16,2.73-7.32,4.29-15.39,6-23,3.12-13.91,2.32-28.23,3.93-42.31,3.94-34.46,14.38-69.45,24.16-102.66C685.52,29.6,690.76,13.82,703.34,2.63Z" fill="none" stroke="#f4ac9c" stroke-linecap="round" stroke-linejoin="round" stroke-width="4"/>
    <path d="M509.84,252.12c-1.68,2.19-4,6.38-4.5,14.5-.5,7.5,2,20,8.5,24.5a39.93,39.93,0,0,0,19,7c1.41.13,7.1,1.89,7.5,3.5s-4.63,2.32-5.51,2.37c-2.73.16-10.77-.32-12,3.13-1.51,4.3,6.44,7.09,9,8.07a60.73,60.73,0,0,0,14.66,3.62c3.82.45,8.75,1,12.35-.69,4.25-2,6.46-6.46,8.39-10.5,2.33-4.85,4.52-9.91,5.28-15.26.26-1.85,1.07-5.88-.67-7.24-2.06-1.61-7.08,4.31-9.5,3.5-1.5-.5,3.43-4.84,5.5-9.5,4-9.1.47-18.77,0-20-2.43-6.29-8-10.19-19-18-5.09-3.59-7.9-4.9-9-4s-.1,3.73,0,4c1.52,4.24,6.5,5.44,7.15,5.59a17.41,17.41,0,0,1,3.85,2.41c6.5,5.4,6.9,13.9,7,16,.19,4-.3,13-4,14s-8.5-5.5-10-12c-.76-3.31,2-4.52,3-11,.51-3.37.76-5.06,0-7-1.66-4.23-6.57-5.86-10-7-4.06-1.34-7.47-2.47-11-1-3.19,1.33-4.84,4.43-5.86,6.21a22.35,22.35,0,0,0-2.14,5.79,20.81,20.81,0,0,0-1,8c.25,2.4.47,4.53,2,6,2.53,2.44,5.5,1.5,10,2,5.14.58,6.65,7,7,8,1.11,3.15,1.89,9-1,11-3.28,2.26-9.4-1.79-12-4-.7-.59-7.82-6.81-8-16-.09-4.76.5-5.5-.5-9.5A11.49,11.49,0,0,0,509.84,252.12Z" fill="none" stroke="#f4ac9c" stroke-linecap="round" stroke-linejoin="round" stroke-width="4"/>
    <path d="M574.84,293.12a67.13,67.13,0,0,0,20,1c10.48-1.05,20.59-4.74,29.79-9.78,8.88-4.86,18.46-11.25,25.16-18.91,3.34-3.81,6.78-11.59,3.05-16.31-7.5-9.5-19.5-19.5-26-18-.63.15-1.32.71-2,2-4.21,7.95-9.75,17.88-18.5,21.5a29,29,0,0,1-11,2c-8.67,0-17.24-2-25.62-4.12-7.3-1.86-15.23-6.36-19.38-12.88-2.48-3.9,3.75-9.55,5.5-10.5" fill="none" stroke="#f4ac9c" stroke-linecap="round" stroke-linejoin="round" stroke-width="4"/>
    <path d="M626.34,230.62c.89-4.26,6-25.22,5.5-31.5a60.61,60.61,0,0,0-3-14c-1.83-5.55-2.76-8.36-5-11-3.57-4.2-8.69-5.84-16-7-14.86-2.34-30.08-1.19-44.68,2.2-14.42,3.35-38.55,6.85-40.32,25.8-.33,3.51.78,6.72,3,13,3.37,9.51,9.44,20.16,6.5,30.5" fill="none" stroke="#f4ac9c" stroke-linecap="round" stroke-linejoin="round" stroke-width="4"/>
    <path d="M517.84,246.12c-8.26-5.44-12.58-14.59-17.49-22.83-5.25-8.8-11.25-15.54-21.51-18.17a34.11,34.11,0,0,0-11-1c-5.71.49-11.89,4.86-16.7,7.93a85.18,85.18,0,0,0-15.3,13.08c-6.69,7-13.75,13.84-19,22-4.47,7-7.39,14.67-6.27,23.05,3,22.1,30.06,35.84,49.64,39.36,4.72.85,9.89,1.68,14.63.59a21.32,21.32,0,0,0,9-4c1.14-.89,2.64-2.3,7-10,2.43-4.28,4.5-8.75,7-13,2.09-3.53,4.09-7.17,6.5-10.5" fill="none" stroke="#f4ac9c" stroke-linecap="round" stroke-linejoin="round" stroke-width="4"/>
    <path d="M465.84,202.12a92,92,0,0,1-2-9,79.52,79.52,0,0,1-1-22c.67-6.67,1.48-13.65,5.12-19.46,4.45-7.1,12.28-12.43,20.88-11.54,5.82.61,10.64,4.52,15.26,7.76,8.63,6.07,17.42,12.55,23.74,21.24a69.09,69.09,0,0,1,5,8" fill="none" stroke="#f4ac9c" stroke-linecap="round" stroke-linejoin="round" stroke-width="4"/>
    <path d="M457.34,310.62c-4.94,5.6-7.26,13.08-8,20.39a59.13,59.13,0,0,0,0,11.21c.42,5,1.09,9.25,6.81,10a58.36,58.36,0,0,0,27.24-2.61c18.26-6.13,35.84-17.12,46.5-33.5" fill="none" stroke="#f4ac9c" stroke-linecap="round" stroke-linejoin="round" stroke-width="4"/>
    <path d="M596.34,294.62c-5.47,13.86-5.71,33.45-6.91,48.3-1.64,20.46.75,42.6-5.59,62.2-4.69,14.51-13.09,27.41-18.68,41.54a73.66,73.66,0,0,1-4.18,8c-1.13,2.05-2.63,4.2-3.23,6.47a28.11,28.11,0,0,1-5.42-1.28q-3-.75-6-1.26c5.16-9.29,10.43-22.58,15-32.15,4.51-9.34,9.8-18.37,13.12-28.25,6-17.76,5.16-36.94,6-55.65.32-6.72.86-13.43,1.1-20.16.21-6,1.43-14-1.8-19.29-2-3.26-6.6-3.3-7-6a4.16,4.16,0,0,1,1-3" fill="none" stroke="#f4ac9c" stroke-linecap="round" stroke-linejoin="round" stroke-width="4"/>
    <path d="M508.84,579.12a41.12,41.12,0,0,1,9-5c8.38-3.34,17.67-3.13,26.52-3.49,12.13,0,32.53,2.94,41.48-7.51,8.38-9.78,4.47-25.71,2.58-37.08-3.71-22.41-10.67-58.87-36.57-65.91-10.26-2.79-20.33,1-29.54,5.32-7.86,3.72-16.62,8-23.47,13.67-6.69,5.52-10.37,10.46-16,18-9.31,12.49-9.57,25-2.58,38.91,2.55,5.05,5.07,10.11,7.47,15.23,2,4.31,5.85,10,6.11,14.87.21,3.89-2.84,8.27-1,12,.27.55.92,1.85,2,2,1.7.24,2.44-2.61,5-3,1.11-.16,1.5.29,4,1A30.5,30.5,0,0,0,508.84,579.12Z" fill="none" stroke="#f4ac9c" stroke-linecap="round" stroke-linejoin="round" stroke-width="4"/>
    <path d="M484.34,494.62c-5.17-6.35-11.22-12.69-18.1-17.21-5.12-3.37-15.76-8-21.4-3.28-10.11,8.42-13.92,21.12-14.95,33.81-.84,10.37-1.67,22.74.22,33,1.82,9.84,11.42,9.92,18.43,14.7,5.82,4,9.45,10.15,13.38,15.83a64.5,64.5,0,0,0,14.92,15.69" fill="none" stroke="#f4ac9c" stroke-linecap="round" stroke-linejoin="round" stroke-width="4"/>
    <path d="M436.34,549.62c-11.86.55-23,4.44-31.65,12.73-5.67,5.44-10.15,12-14.55,18.48-7.13,10.56-14,21.62-17.88,33.86-2.57,8.14-4.94,18.08-1.64,26.36s13.89,16.23,21.22,21.07c8.21,5.43,14.79,7.86,26,12,12.3,4.55,16.86,4.91,19,5h0c8.39.38,21.47-1,28-7,7.14-6.57,7.48-17.68,5.5-26.5" fill="none" stroke="#f4ac9c" stroke-linecap="round" stroke-linejoin="round" stroke-width="4"/>
    <path d="M586.34,565.62c3.19,1.14,8.32,4.32,13,9,6.5,6.5,9.61,12.46,10.5,15.5.77,2.66,1.16,4,1,6-.3,3.68-2.29,6.79-9,13a107.23,107.23,0,0,1-15,12,92.25,92.25,0,0,1-16,9,103.34,103.34,0,0,1-20,6c-4.46,1-9.75,2.11-12.5,2.5" fill="none" stroke="#f4ac9c" stroke-linecap="round" stroke-linejoin="round" stroke-width="4"/>
    <path d="M495.66,581.76a5.52,5.52,0,0,1-4.19.17c-5-1.38-9.5-.27-12.63,4.19a12.75,12.75,0,0,0-2,9,14.11,14.11,0,0,0,7.88,10.67,13.77,13.77,0,0,0,7.19,1.42c2.73-.27,5.13-2.16,7.93-1.09,6.5,2.5,11,9.71,12,12s2.37,5.43,1,8a6.86,6.86,0,0,1-4,3c-5.34,1.91-10.82-.87-17-4-.72-.36-8.28-4.24-11-8-.14-.19-1.24-1.73-2.87-3.65a30.43,30.43,0,0,0-2.13-2.35c-1.79-1.74-2.83-2.75-4-3-7.54-1.61-9.5,12.49-9.41,17.06.15,7.33,2.47,15.25,8.53,19.38,4.86,3.31,11.13,3.55,17,3.34,5.06-.19,10.34-.68,15-2.77,2.81-1.25,11-10.59,14.2-6.21a3.82,3.82,0,0,1,.23,3.64,11.27,11.27,0,0,1-2.2,3.08c-4.32,4.81-8.84,9.77-14.82,12.25a16.06,16.06,0,0,0-3.06,1.42c-3.88,2.69-.8,8.15,1.8,10.47,4.94,4.43,12.23,5.93,18.71,5.33,3.46-.31,5.77-.52,8-2,3.63-2.39,4-6.11,7-19,1.28-5.39,1.78-11.56,4.71-16.39,2.35-3.9,7.26-6.56,7.29-11.61,0-.46,0-2.55-1-3-1.94-.84-4.93,5.52-9,5a3.77,3.77,0,0,1-3-2c-1-2.63,3.44-6.34,4-9,1-4.7.12-8.93-3.33-12.43-2.49-2.52-5.59-4.37-8.13-6.84-3.49-3.37-5.8-7.74-8.81-11.55-3.2-4.07-10.1-9.78-15.73-7.18C498,580,497,581.12,495.66,581.76Z" fill="none" stroke="#f4ac9c" stroke-miterlimit="10" stroke-width="4"/>
    <path d="M485.34,606.62c-3,2-4,5-5,7" fill="none" stroke="#f4ac9c" stroke-linecap="round" stroke-linejoin="round" stroke-width="4"/>
    <path d="M498.85,582.13c2,1.15,3.85,4.08,5.59,5.7,2.47,2.29,5.15,4.34,7.79,6.44,3.82,3,7.71,6.12,10.77,10,1.13,1.42,4,4.26,1.71,5.08-1.47.52-4.92-2.34-5.87-3.2a16.83,16.83,0,0,1-4-6C510.4,591.73,499.18,582.32,498.85,582.13Z" fill="none" stroke="#f4ac9c" stroke-linecap="round" stroke-linejoin="round" stroke-width="4"/>
    <path d="M501.84,598.12c13.44,9.87,22.6,25.32,24,42" fill="none" stroke="#f4ac9c" stroke-linecap="round" stroke-linejoin="round" stroke-width="4"/>
    <path d="M526.34,673.62a121.37,121.37,0,0,1-12.82,29.68c-7.26,11.83-16.59,25.37-31.52,16.22-15.52-9.51-29.25-23.12-36.66-39.9" fill="none" stroke="#f4ac9c" stroke-linecap="round" stroke-linejoin="round" stroke-width="4"/>
    <path d="M438.82,679.45c-.92-.27-9.38,12.59-10.39,13.95q-5.67,7.64-11.32,15.28C409.55,718.87,402,729,394.22,739.09c-9.35,12.13-18.92,24.1-28.91,35.71-9.51,11.06-21.73,21.23-29.63,33.51a31.84,31.84,0,0,1-4.14,5.83c-3,2.89-11,5.14-13.91.84-2.53-3.73,5.78-9.37,8.07-11.63,5.09-5,9.93-10.31,15.14-15.23,3.9-3.68,8.6-9.12,18-20,5.84-6.75,11.75-13.59,19-23,3.23-4.18,7.49-10.12,16-22s8.64-12.23,15-21c4.83-6.64,9.68-13.28,14.48-19.94C426.73,677.45,433.73,678,438.82,679.45Z" fill="none" stroke="#f4ac9c" stroke-miterlimit="10" stroke-width="4"/>
    <path d="M496.34,606.62a38.32,38.32,0,0,1,9,7c2.24,2.66,7,7,7,11" fill="none" stroke="#f4ac9c" stroke-linecap="round" stroke-linejoin="round" stroke-width="4"/>
    <g>
      <path d="M94.89,462.11a30.62,30.62,0,0,1-6.72.82c-2.09,0-3.14-.75-3.14-2.24q-2.1-8.82-5.6-31.76t-5-31.46Q70.23,407,63.66,421.68,49,454.11,46.47,460.84a21.73,21.73,0,0,1-4.33,1.27,30.63,30.63,0,0,1-6.73.82c-2.09,0-3.13-.75-3.13-2.24Q30,451.27,26,424.37T17.63,375.5q-4.33-22-9-29.14,6.29-3.89,10.46-3.88,8.07,0,10.76,9.49t7.78,51.48q.29,2.24,2.84,19.43t3.28,22.86q15.84-41.53,26-73.67-4.19-19-8.37-25.71,6.27-3.89,10.46-3.88,8.07,0,10.76,9.49t7.77,51.48q.3,2.24,2.84,19.43t3.29,22.86q32.86-87.42,33.92-105.51a27.64,27.64,0,0,1,10.16,4.26c2.49,1.85,3.74,3.91,3.74,6.2q0,9.72-30.64,77.27-12.1,26.44-14.49,32.88A21.92,21.92,0,0,1,94.89,462.11Z" fill="#844424"/>
      <path d="M210.11,351.52a53.85,53.85,0,0,1,.45,8.44q0,6-4.93,39.75T200.7,447q0,13.53,2.09,18.46-9.27-3.29-13.08-8.89a22.83,22.83,0,0,1-3.81-13.15q0-7.55,3.14-30.72,5.53-38.4,5.53-59.47,0-4.49-.6-12.26,11.35.6,14.2,5.38A16.79,16.79,0,0,1,210.11,351.52Z" fill="#844424"/>
      <path d="M263.91,451.87a29.72,29.72,0,0,1-1.34-10q0-6.44,4.33-38t4.34-50.66q0-4.49-.6-12.26,11.36.6,14.19,5.38a16.83,16.83,0,0,1,1.95,5.16,47.79,47.79,0,0,1,.45,7.77q0,5.31-4.86,39.9t-5,49.24a16.05,16.05,0,0,1,2.69-.15q32.28,0,48.12-4.48-1,8.67-5.9,13.45A16.65,16.65,0,0,1,310.09,462q-2.08,0-12.93-1t-21-1A108.5,108.5,0,0,0,255.84,462,17.07,17.07,0,0,1,263.91,451.87Z" fill="#844424"/>
      <path d="M414.85,341q20.63,0,32.43,16.29t11.81,41q0,25.11-13.6,44.23a46.75,46.75,0,0,1-17.71,15,50.57,50.57,0,0,1-23,5.61,77.77,77.77,0,0,1-20.92-2.54q-9-2.55-13.08-5.08l-4.18-2.54q.15-1.2,3.29-22.27,6.57-43.93,6.57-79.66,0-11.81-2.09-16.73,12.4,4.19,15.54,13.15Q403.2,341,414.85,341ZM383.92,450.37a49.69,49.69,0,0,0,16,2.25,37.32,37.32,0,0,0,18.23-4.86,39.93,39.93,0,0,0,14.2-12.93,64,64,0,0,0,11.06-36.76q0-20.47-9.12-33t-24.51-12.55a43.16,43.16,0,0,0-17.93,3.44q0,9.26-4,46.62T383.92,450.37Z" fill="#844424"/>
    </g>
    <g>
      <path d="M695.68,447.17A46.89,46.89,0,0,1,679.76,459a48.94,48.94,0,0,1-20.88,4.44,37.39,37.39,0,0,1-20-5.33,38.85,38.85,0,0,1-13.7-14.22Q615,425.78,615,402.52t11.4-41.39Q637.77,343,656,337.21q2.52.59,2.82,2.37a61.55,61.55,0,0,0-17,15q-6.6,8.58-9.11,23.25,6.22-17.32,19.4-27.25t27.62-9.93q14.44,0,24.59,12.37t10.14,35.77q0,22.8-8.14,41.32A66.93,66.93,0,0,1,695.68,447.17Zm-4.59-85.82q-6.66-9.93-18.07-9.92t-21,9a58.17,58.17,0,0,0-14.66,22.59,79,79,0,0,0-5,27.77q0,19.1,7,31.39t21.11,12.3q11.4,0,20.14-9.34a58.24,58.24,0,0,0,13-23.1,98.66,98.66,0,0,0,4.22-29Q697.76,371.28,691.09,361.35Z" fill="#844424"/>
      <path d="M764.7,459.17q-3.27-3-3.26-9.92t5-42.06q5-35.18,5-50.21t-2.07-19.62q11.85,1.18,15.4,11.7a49.64,49.64,0,0,1,24-5.93q13,0,21.18,8.37A27,27,0,0,1,838,370.9a34.91,34.91,0,0,1-6.59,20.44q-6.6,9.41-20.07,13.85l2.07,6.37a145.24,145.24,0,0,0,15.41,32.06q10.06,15.92,16.44,21.7c-2.08,1-5.07,1.48-9,1.48s-7.94-1.73-12.14-5.19-8-8.34-11.48-14.66a232.41,232.41,0,0,1-16-38.8c-3.56.2-6.27.29-8.15.29l-.44-5.33q16.57-.58,25.69-9.62a29,29,0,0,0,9.11-21.33,17.52,17.52,0,0,0-5.26-13q-5.25-5.19-14.14-5.19A51.11,51.11,0,0,0,786,357.05q0,5.77-4.22,37.47t-4.22,52.88a91.18,91.18,0,0,0,.89,14.51c-2.37.2-3.65.3-3.85.3Q768,462.21,764.7,459.17Z" fill="#844424"/>
      <path d="M919.31,461.91q-16.42,0-27.69-13.33t-11.26-38.8a93.12,93.12,0,0,1,6.08-34.29,57.5,57.5,0,0,1,19-25.32,47.09,47.09,0,0,1,29.25-9.85q16.29,0,23.69,7.92a25.82,25.82,0,0,1,7.41,18.14q0,10.23-5.18,16.37a16.8,16.8,0,0,1-13.48,6.15,22.92,22.92,0,0,1-6.52-1.19,31.17,31.17,0,0,0,6-10,34.38,34.38,0,0,0,2.59-12.95,18.19,18.19,0,0,0-3.48-11.19q-3.48-4.67-11-4.66-11.41,0-20.37,9.4a60.29,60.29,0,0,0-13.47,23.11,89.23,89.23,0,0,0-4.52,28.21q0,20.44,7.85,30.58t20.29,10.15q8.29,0,17-5a39.76,39.76,0,0,0,14.37-14.51,7.11,7.11,0,0,1,4.14,1.33c1.29.89,1.93,1.78,1.93,2.67q-8.29,15.69-20.88,21.77A49.53,49.53,0,0,1,919.31,461.91Z" fill="#844424"/>
      <path d="M1068,407.26l-21.48-.3q-6.81,0-13.47.45-3.7,26.5-3.71,39.25t2.08,17.62q-9.2-3.25-13-8.81a22.6,22.6,0,0,1-3.78-13,152.62,152.62,0,0,1,1.56-19.26q1.54-11.78,1.85-13.55-5,1.19-7.55,2.07a50.19,50.19,0,0,1-.3-5.62q0-8.44,9.77-9.93a343.81,343.81,0,0,0,3.26-43.09c0-3-.2-7-.59-12.15q11.25.6,14.07,5.33a16.85,16.85,0,0,1,1.93,5.11,54.59,54.59,0,0,1,.44,8.37q0,5.92-2.15,20.29t-2.29,15.7q26.36,0,47.39-.45a331.06,331.06,0,0,0,3.26-42.2c0-3-.2-7-.59-12.15q11.25.6,14.06,5.33a16.85,16.85,0,0,1,1.93,5.11,53.3,53.3,0,0,1,.44,8.37q0,5.92-4.88,39.39T1091.41,446q0,13.41,2.07,18.29-9.18-3.25-13-8.81a22.67,22.67,0,0,1-3.77-13q0-7.49,3.11-30.44l2.07-15.11Q1079.71,407.27,1068,407.26Z" fill="#844424"/>
      <path d="M1175.38,351.35a53,53,0,0,1,.45,8.37q0,5.92-4.89,39.39T1166.05,446q0,13.41,2.07,18.29-9.18-3.25-12.95-8.81a22.6,22.6,0,0,1-3.78-13q0-7.49,3.11-30.44,5.48-38.06,5.48-58.94c0-3-.2-7-.59-12.15q11.25.6,14.07,5.33A17.08,17.08,0,0,1,1175.38,351.35Z" fill="#844424"/>
      <path d="M1273.57,340.91q20.45,0,32.14,16.14t11.7,40.58q0,24.89-13.48,43.84a46.36,46.36,0,0,1-17.55,14.89,50.15,50.15,0,0,1-22.8,5.55,76.88,76.88,0,0,1-20.74-2.52q-9-2.52-13-5l-4.14-2.52q.13-1.18,3.25-22.07,6.52-43.54,6.52-78.94,0-11.7-2.07-16.58,12.29,4.14,15.4,13Q1262,340.91,1273.57,340.91Zm-30.65,108.41a49.42,49.42,0,0,0,15.84,2.22,37,37,0,0,0,18.07-4.81,39.56,39.56,0,0,0,14.07-12.81,63.34,63.34,0,0,0,11-36.43q0-20.3-9-32.73t-24.29-12.45a43,43,0,0,0-17.78,3.41q0,9.18-3.92,46.21T1242.92,449.32Z" fill="#844424"/>
    </g>
  </g>
</svg>
