<svg width="215" height="68" viewBox="0 0 215 68" fill="none" xmlns="http://www.w3.org/2000/svg">
<path d="M2.752 54.264C2.28267 54.0933 1.74933 53.752 1.152 53.24C0.597333 52.7707 0.32 52.2587 0.32 51.704C0.32 50.8933 0.789333 50.104 1.728 49.336C2.70933 48.568 3.904 47.864 5.312 47.224C6.72 46.5413 8.128 45.9653 9.536 45.496C10.9867 44.984 12.2027 44.5787 13.184 44.28C14.1653 43.9387 14.6773 43.7467 14.72 43.704C15.104 43.6187 15.4667 43.5333 15.808 43.448C16.192 43.3627 16.576 43.2773 16.96 43.192C16.6187 42.7227 16.1707 42.3173 15.616 41.976C15.104 41.592 14.656 41.272 14.272 41.016C13.8453 40.76 13.4187 40.4827 12.992 40.184C12.608 39.8853 12.2027 39.608 11.776 39.352C10.5813 38.6267 9.536 37.9867 8.64 37.432C7.744 36.8773 6.93333 35.96 6.208 34.68C5.90933 34.2107 5.632 33.6347 5.376 32.952C5.16267 32.2267 5.056 31.5867 5.056 31.032C5.056 29.8373 5.54667 28.7493 6.528 27.768C7.50933 26.744 8.66133 25.8907 9.984 25.208C11.3067 24.4827 12.4373 23.9707 13.376 23.672C13.76 23.544 14.1227 23.416 14.464 23.288C14.8053 23.1173 15.1893 23.0107 15.616 22.968C15.9573 22.8827 16.2987 22.7333 16.64 22.52C17.024 22.3067 17.3867 22.1787 17.728 22.136C18.3253 21.9653 18.9013 21.8587 19.456 21.816C20.0107 21.7307 20.5653 21.624 21.12 21.496C21.4613 21.4107 21.8027 21.3893 22.144 21.432C22.528 21.432 22.848 21.368 23.104 21.24L23.232 21.176H23.296C23.4667 21.176 23.6373 21.1973 23.808 21.24C23.9787 21.24 24.1493 21.24 24.32 21.24C24.4907 21.24 24.6613 21.2187 24.832 21.176C25.0453 21.0907 25.2373 21.048 25.408 21.048C25.6213 21.048 25.8347 21.0907 26.048 21.176C26.304 21.2187 26.5387 21.24 26.752 21.24C26.9653 21.24 27.2427 21.3253 27.584 21.496C27.968 21.624 28.2453 21.7307 28.416 21.816C28.928 22.0293 29.3547 22.4133 29.696 22.968C30.08 23.5227 30.272 24.0773 30.272 24.632C30.272 25.1867 30.1013 25.6133 29.76 25.912C29.4187 26.168 29.056 26.4667 28.672 26.808C28.288 27.1493 27.9467 27.5333 27.648 27.96C27.3493 28.3867 27.0507 28.8347 26.752 29.304H26.56C26.6453 28.7493 26.8587 28.216 27.2 27.704C27.584 27.192 27.9467 26.68 28.288 26.168C28.6293 25.656 28.8 25.1013 28.8 24.504C28.8 23.6933 28.4587 23.224 27.776 23.096C27.136 22.968 26.5173 22.904 25.92 22.904C25.3227 22.904 24.7253 22.9467 24.128 23.032C23.5733 23.1173 22.9973 23.2027 22.4 23.288C20.736 23.4587 19.1573 23.7787 17.664 24.248C16.2133 24.7173 14.7413 25.3147 13.248 26.04C12.6933 26.3387 12.096 26.68 11.456 27.064C10.8587 27.4053 10.304 27.6827 9.792 27.896C9.49333 28.024 9.216 28.1307 8.96 28.216C8.448 28.8133 7.872 29.4747 7.232 30.2C6.592 30.9253 6.272 31.7147 6.272 32.568C6.272 33.5067 6.69867 34.3813 7.552 35.192C8.40533 36.0027 9.472 36.8133 10.752 37.624C12.032 38.4347 13.2907 39.288 14.528 40.184C15.7653 41.0373 16.768 41.9973 17.536 43.064C18.048 42.9787 18.56 42.8933 19.072 42.808C19.6267 42.7227 20.16 42.68 20.672 42.68C21.9093 42.68 22.8907 43.0427 23.616 43.768C24.3413 44.4933 24.704 45.4747 24.704 46.712C24.704 47.6933 24.4907 48.3333 24.064 48.632C23.68 48.888 23.1253 49.208 22.4 49.592C22.1013 49.7627 21.8027 49.976 21.504 50.232C21.2053 50.488 20.8853 50.6373 20.544 50.68V50.616H20.48V50.552H20.544C20.9707 50.2107 21.4613 49.784 22.016 49.272C22.5707 48.76 23.0613 48.2053 23.488 47.608C23.9573 47.0107 24.192 46.456 24.192 45.944C24.192 45.3467 23.936 44.9413 23.424 44.728C22.912 44.472 22.336 44.3227 21.696 44.28C21.056 44.1947 20.544 44.152 20.16 44.152C19.8613 44.152 19.5413 44.1733 19.2 44.216C18.9013 44.216 18.5813 44.2373 18.24 44.28C18.2827 44.3227 18.304 44.3653 18.304 44.408C18.304 44.4507 18.3253 44.4933 18.368 44.536C18.496 44.8347 18.56 45.1547 18.56 45.496C18.56 46.008 18.4107 46.5627 18.112 47.16C17.5147 48.3547 16.64 49.336 15.488 50.104C14.3787 50.872 13.1627 51.4693 11.84 51.896C10.5173 52.3227 9.216 52.6427 7.936 52.856C7.76533 52.8987 7.59467 52.92 7.424 52.92C7.25333 52.92 7.08267 52.92 6.912 52.92C5.93067 52.92 4.94933 52.792 3.968 52.536L4.096 52.344C4.30933 52.3867 4.50133 52.408 4.672 52.408C4.88533 52.4507 5.07733 52.472 5.248 52.472C5.46133 52.472 5.71733 52.4293 6.016 52.344C6.31467 52.3013 6.57067 52.2587 6.784 52.216C7.12533 52.0027 7.76533 51.7467 8.704 51.448C9.64267 51.1493 10.5173 50.8293 11.328 50.488C12.1813 50.1467 12.6507 49.8267 12.736 49.528C12.736 49.4 12.7573 49.336 12.8 49.336C13.312 49.0373 13.9307 48.632 14.656 48.12C15.3813 47.608 16.0213 47.032 16.576 46.392C17.1733 45.752 17.472 45.112 17.472 44.472V44.344C14.912 44.6853 12.544 45.2613 10.368 46.072C9.55733 46.3707 8.512 46.8187 7.232 47.416C5.99467 48.0133 4.84267 48.7173 3.776 49.528C2.70933 50.296 2.00533 51.1067 1.664 51.96C1.664 52.0027 1.64267 52.0453 1.6 52.088C1.6 52.1733 1.6 52.2587 1.6 52.344C1.6 52.6427 1.70667 52.984 1.92 53.368C2.13333 53.7947 2.41067 54.008 2.752 54.008V54.264ZM27.2415 52.728C26.8575 52.728 26.4948 52.6427 26.1535 52.472C25.8122 52.3013 25.6415 52.0027 25.6415 51.576C25.6415 50.7653 25.7908 49.7627 26.0895 48.568C26.4308 47.3733 26.8148 46.1787 27.2415 44.984C27.6682 43.7467 28.0308 42.6373 28.3295 41.656C28.6708 40.632 28.8415 39.9067 28.8415 39.48V39.416H28.5215C28.0095 39.416 27.4762 39.2453 26.9215 38.904C26.4095 38.52 26.1535 38.0507 26.1535 37.496C26.1535 36.9413 26.3668 36.4507 26.7935 36.024C27.2202 35.5973 27.6255 35.2347 28.0095 34.936C28.1802 34.8507 28.3295 34.744 28.4575 34.616C28.6282 34.4453 28.7988 34.36 28.9695 34.36L29.4175 34.168V34.232C29.4175 34.2747 29.2468 34.488 28.9055 34.872C28.5642 35.2133 28.3508 35.4267 28.2655 35.512C28.0948 35.768 27.9028 36.1947 27.6895 36.792C27.5188 37.3893 27.4335 37.8373 27.4335 38.136C27.4335 38.392 27.5188 38.5413 27.6895 38.584C27.8602 38.6267 28.0308 38.648 28.2015 38.648C28.3722 38.648 28.5855 38.5627 28.8415 38.392C29.0975 38.2213 29.2682 38.1787 29.3535 38.264C29.3535 38.2213 29.4602 37.9867 29.6735 37.56C29.9295 37.1333 30.0788 36.8987 30.1215 36.856V36.6C30.2922 36.216 30.4628 35.7893 30.6335 35.32C30.8042 34.8507 31.0388 34.4453 31.3375 34.104V34.04C31.5508 33.5707 31.8495 32.9307 32.2335 32.12C32.6175 31.3093 33.0442 30.4347 33.5135 29.496C33.9828 28.5573 34.4522 27.704 34.9215 26.936C35.3908 26.168 35.7748 25.6347 36.0735 25.336C36.0735 25.2507 36.2442 24.9947 36.5855 24.568C36.9268 24.0987 37.1402 23.8 37.2255 23.672C37.6522 23.032 38.2922 22.2853 39.1455 21.432C39.9988 20.5787 40.8948 19.7893 41.8335 19.064C42.7722 18.296 43.5615 17.8053 44.2015 17.592L45.0975 17.272C45.6948 17.4427 46.2282 17.6987 46.6975 18.04C47.1668 18.3387 47.4015 18.8293 47.4015 19.512C47.4015 20.3227 47.1455 21.2827 46.6335 22.392C46.1215 23.5013 45.5242 24.568 44.8415 25.592C44.1588 26.616 43.5828 27.448 43.1135 28.088C42.8148 28.5147 42.4735 28.92 42.0895 29.304C41.7482 29.6453 41.4282 30.0507 41.1295 30.52C40.8308 30.6907 40.5748 30.9253 40.3615 31.224C40.1482 31.48 39.9348 31.7147 39.7215 31.928C39.4655 32.184 39.0175 32.6107 38.3775 33.208C37.7375 33.8053 37.0122 34.424 36.2015 35.064C35.4335 35.704 34.7082 36.28 34.0255 36.792C33.3855 37.2613 32.9375 37.5173 32.6815 37.56L32.6175 37.624C32.3188 37.9227 31.9988 38.136 31.6575 38.264C31.3162 38.3493 30.9962 38.4987 30.6975 38.712C30.5268 38.8827 30.3348 39.2453 30.1215 39.8C29.9082 40.312 29.7162 40.8667 29.5455 41.464C29.3748 42.0187 29.2255 42.4453 29.0975 42.744C28.9268 43.2133 28.7775 43.7253 28.6495 44.28C28.5642 44.792 28.4148 45.2613 28.2015 45.688L27.8175 47.032C27.7748 47.2027 27.6895 47.5653 27.5615 48.12C27.4335 48.632 27.3268 49.1227 27.2415 49.592C27.1988 50.0613 27.1988 50.296 27.2415 50.296C27.3268 50.2533 27.7108 49.8267 28.3935 49.016C29.1188 48.2053 30.0148 47.2027 31.0815 46.008C32.1482 44.7707 33.2362 43.5547 34.3455 42.36C35.4975 41.1653 36.5215 40.1413 37.4175 39.288C38.3135 38.4347 38.9322 37.9867 39.2735 37.944H39.5935C40.1908 37.944 40.6602 38.0293 41.0015 38.2C41.3428 38.328 41.4495 38.7973 41.3215 39.608C40.8522 41.1867 40.2335 42.7653 39.4655 44.344C38.7402 45.88 38.3775 47.48 38.3775 49.144C38.3775 49.3573 38.3988 49.6987 38.4415 50.168C38.5268 50.6373 38.6548 51.0427 38.8255 51.384C39.0388 51.768 39.2948 51.96 39.5935 51.96C40.1482 51.96 40.7242 51.6613 41.3215 51.064C41.9615 50.4667 42.5802 49.8053 43.1775 49.08C43.7748 48.3547 44.2868 47.8213 44.7135 47.48V48.184C44.6282 48.312 44.5428 48.4613 44.4575 48.632C44.3722 48.8027 44.2868 48.9733 44.2015 49.144C43.9028 49.5707 43.4335 50.1253 42.7935 50.808C42.1962 51.4907 41.6842 52.0027 41.2575 52.344C41.1295 52.4293 40.9375 52.4933 40.6815 52.536C40.4255 52.5787 40.2122 52.6 40.0415 52.6C39.8282 52.6 39.6362 52.5573 39.4655 52.472C39.2948 52.3867 39.1028 52.3013 38.8895 52.216C37.4388 51.5333 36.7135 50.3813 36.7135 48.76C36.7135 47.9493 36.7348 47.2027 36.7775 46.52C36.8628 45.8373 37.0122 45.112 37.2255 44.344C37.4388 43.6187 37.6095 42.8933 37.7375 42.168C37.9082 41.4427 38.0788 40.7173 38.2495 39.992L36.2015 41.976C35.9882 42.1467 35.7962 42.3813 35.6255 42.68C35.4975 42.936 35.3268 43.1707 35.1135 43.384C34.9002 43.6827 34.6442 43.9387 34.3455 44.152C34.0468 44.3653 33.7695 44.6213 33.5135 44.92C33.1295 45.304 32.7668 45.752 32.4255 46.264C32.1268 46.7333 31.7855 47.16 31.4015 47.544C31.1028 47.8427 30.8042 48.1413 30.5055 48.44C30.2495 48.7387 29.9935 49.0587 29.7375 49.4C29.5668 49.6133 29.3322 49.976 29.0335 50.488C28.7348 50.9573 28.4148 51.4267 28.0735 51.896C27.7748 52.3653 27.4975 52.6427 27.2415 52.728ZM30.9535 37.432H31.1455C34.1748 35.5547 37.0122 33.2507 39.6575 30.52C42.3028 27.7467 44.3082 24.696 45.6735 21.368C45.7588 21.0693 45.7802 20.856 45.7375 20.728C45.7375 20.6 45.7375 20.3867 45.7375 20.088C45.7375 19.96 45.6095 19.9173 45.3535 19.96C45.1402 19.96 44.9695 19.9387 44.8415 19.896C44.5428 20.0667 44.1588 20.2587 43.6895 20.472C43.2202 20.6853 42.8575 20.8987 42.6015 21.112C42.5162 21.1547 42.4522 21.2187 42.4095 21.304C42.4095 21.3893 42.3882 21.4747 42.3455 21.56L41.5135 22.328C41.3855 22.456 41.2362 22.584 41.0655 22.712C40.9375 22.7973 40.8095 22.8827 40.6815 22.968C40.5108 23.1387 40.3615 23.3093 40.2335 23.48C40.1482 23.608 40.0202 23.7573 39.8495 23.928C39.6788 24.0987 39.5082 24.248 39.3375 24.376C39.2095 24.504 39.0388 24.6533 38.8255 24.824C38.6975 24.9093 38.4415 25.1867 38.0575 25.656C37.7162 26.1253 37.3108 26.68 36.8415 27.32C36.4148 27.9173 36.0095 28.472 35.6255 28.984C35.2842 29.496 35.0708 29.8373 34.9855 30.008C34.9428 30.0507 34.8788 30.136 34.7935 30.264C34.7508 30.392 34.6868 30.4773 34.6015 30.52C34.6015 30.7333 34.5375 30.84 34.4095 30.84L34.4735 31.096H34.2815C34.2388 31.2667 34.0895 31.5653 33.8335 31.992C33.5775 32.376 33.3642 32.568 33.1935 32.568C33.1935 32.6107 33.1935 32.632 33.1935 32.632C33.2362 32.632 33.2575 32.632 33.2575 32.632V32.696C33.2575 32.7387 33.1508 32.9947 32.9375 33.464C32.7242 33.9333 32.4682 34.4667 32.1695 35.064C31.8708 35.6613 31.5935 36.1947 31.3375 36.664C31.1242 37.0907 30.9962 37.3467 30.9535 37.432ZM48.41 52.472C47.7273 52.472 47.2153 52.3013 46.874 51.96C46.5753 51.6613 46.3193 51.512 46.106 51.512C46.0633 51.2987 45.8713 51.064 45.53 50.808C45.1887 50.552 45.018 49.9547 45.018 49.016C45.018 48.1627 45.21 47.416 45.594 46.776C45.978 46.136 46.3193 45.4533 46.618 44.728C46.7033 44.5147 46.746 44.3013 46.746 44.088C46.746 43.832 46.7887 43.6187 46.874 43.448C46.9593 43.1493 47.0873 42.872 47.258 42.616C47.4287 42.36 47.5993 42.104 47.77 41.848C48.7513 40.184 49.9033 38.84 51.226 37.816C52.5487 36.7493 54.106 35.8533 55.898 35.128H55.962C56.1753 35.0427 56.5167 34.9787 56.986 34.936C57.4553 34.8507 57.7967 34.808 58.01 34.808C58.4367 34.808 58.8207 34.8933 59.162 35.064C59.5033 35.2347 59.802 35.32 60.058 35.32L59.93 35.448C60.314 35.6187 60.6127 35.8747 60.826 36.216C61.0393 36.5147 61.274 36.792 61.53 37.048C61.6153 37.1333 61.7007 37.2187 61.786 37.304C61.8713 37.3893 61.9353 37.4747 61.978 37.56C62.106 37.688 62.1913 37.88 62.234 38.136C62.2767 38.392 62.298 38.6267 62.298 38.84C62.298 39.9493 62.0207 40.952 61.466 41.848C60.9113 42.744 60.2927 43.6187 59.61 44.472C59.3113 44.8987 59.0127 45.3253 58.714 45.752C58.458 46.1787 58.138 46.584 57.754 46.968C57.6687 47.0533 57.434 47.2667 57.05 47.608C56.7087 47.9493 56.3673 48.2907 56.026 48.632C55.7273 48.9307 55.5567 49.1227 55.514 49.208C55.2153 49.336 54.938 49.528 54.682 49.784C54.426 50.04 54.1487 50.2747 53.85 50.488C53.082 51.0427 52.2287 51.512 51.29 51.896C50.3513 52.28 49.3913 52.472 48.41 52.472ZM48.09 51.704C48.09 51.704 48.3887 51.6187 48.986 51.448C49.5833 51.2773 49.9673 51.1707 50.138 51.128C50.3513 51.0427 50.7567 50.8293 51.354 50.488C51.994 50.104 52.5913 49.72 53.146 49.336C53.7007 48.9093 53.978 48.6107 53.978 48.44C54.2767 48.3547 54.682 48.0347 55.194 47.48C55.7487 46.8827 56.282 46.264 56.794 45.624C57.306 44.9413 57.6473 44.472 57.818 44.216C57.9033 44.1307 58.0527 43.9173 58.266 43.576C58.4793 43.192 58.6073 43 58.65 43C58.6927 42.8293 58.7567 42.6587 58.842 42.488C58.97 42.2747 59.034 42.104 59.034 41.976C59.162 41.8907 59.29 41.6133 59.418 41.144C59.546 40.632 59.6527 40.376 59.738 40.376L59.674 40.312C59.7167 40.2267 59.738 40.1627 59.738 40.12C59.7807 40.0347 59.8233 39.9707 59.866 39.928C59.866 39.672 59.9087 39.4373 59.994 39.224C60.0793 38.968 60.122 38.712 60.122 38.456C60.2073 38.2853 60.25 38.072 60.25 37.816C60.25 37.56 60.25 37.3467 60.25 37.176L60.314 37.112V37.048C60.314 36.664 60.186 36.3227 59.93 36.024C59.7167 35.7253 59.3753 35.576 58.906 35.576C57.7113 35.576 56.6233 35.8747 55.642 36.472C54.7033 37.0267 53.786 37.6453 52.89 38.328C52.5913 38.5413 52.2927 38.776 51.994 39.032C51.6953 39.2453 51.418 39.5013 51.162 39.8C51.0767 39.8427 50.9487 39.928 50.778 40.056C50.6073 40.184 50.522 40.312 50.522 40.44C50.906 40.3973 51.2687 40.248 51.61 39.992C51.994 39.6933 52.5273 39.544 53.21 39.544C53.4233 39.544 53.8287 39.736 54.426 40.12C55.066 40.504 55.386 40.8027 55.386 41.016V41.144C55.13 41.0587 54.938 40.9733 54.81 40.888C54.7247 40.8027 54.5113 40.76 54.17 40.76C53.3167 40.76 52.442 41.1013 51.546 41.784C50.6927 42.424 49.9887 43.0427 49.434 43.64C49.178 43.8533 48.922 44.088 48.666 44.344C48.4527 44.6 48.2607 44.8773 48.09 45.176C47.962 45.4747 47.898 45.816 47.898 46.2C47.9833 46.1573 48.0687 46.2213 48.154 46.392C48.2393 46.52 48.282 46.6267 48.282 46.712H48.09C47.8767 46.712 47.706 46.6693 47.578 46.584C47.4927 46.456 47.4073 46.392 47.322 46.392C47.1513 46.52 46.9593 46.8613 46.746 47.416C46.5327 47.9707 46.3833 48.248 46.298 48.248C46.2553 48.4187 46.2127 48.6107 46.17 48.824C46.17 48.9947 46.17 49.1653 46.17 49.336C46.17 50.0187 46.298 50.5733 46.554 51C46.81 51.4693 47.322 51.704 48.09 51.704ZM61.759 66.936C61.7163 66.936 61.631 66.9147 61.503 66.872C61.375 66.872 61.2897 66.8293 61.247 66.744C60.6923 66.744 60.2657 66.5093 59.967 66.04C59.6683 65.5707 59.455 65.0373 59.327 64.44C59.199 63.8427 59.135 63.3307 59.135 62.904C59.135 62.5627 59.1777 62.1787 59.263 61.752C59.3483 61.368 59.4123 61.0053 59.455 60.664C59.6257 60.4507 59.7537 60.1733 59.839 59.832C59.8817 59.4907 59.9243 59.192 59.967 58.936C60.1377 58.3813 60.3297 57.848 60.543 57.336C60.7563 56.824 60.991 56.3333 61.247 55.864C61.3323 55.608 61.4177 55.4373 61.503 55.352V55.16C61.7163 54.904 61.8657 54.6267 61.951 54.328C62.0363 54.0293 62.143 53.7307 62.271 53.432C62.4843 52.9627 62.719 52.4933 62.975 52.024C63.231 51.5973 63.487 51.1707 63.743 50.744C64.0843 50.1893 64.4257 49.656 64.767 49.144C65.1083 48.5893 65.4283 48.0347 65.727 47.48C65.8977 47.2667 66.0897 47.032 66.303 46.776C66.5163 46.4773 66.6657 46.2213 66.751 46.008C67.135 45.24 67.6683 44.3227 68.351 43.256C69.0337 42.1893 69.6523 41.2933 70.207 40.568L70.143 40.44L70.335 40.184C70.4203 39.8427 70.6123 39.3947 70.911 38.84C71.2097 38.2853 71.359 37.8587 71.359 37.56V37.496H71.295C70.911 37.496 70.335 37.6453 69.567 37.944C68.8417 38.2 68.0737 38.5413 67.263 38.968C66.4523 39.3947 65.7697 39.8427 65.215 40.312C64.6603 40.7813 64.383 41.208 64.383 41.592C64.383 41.848 64.4683 42.0613 64.639 42.232C64.8523 42.36 65.0443 42.488 65.215 42.616V42.68C65.1723 42.68 65.151 42.7013 65.151 42.744C64.767 42.6587 64.2123 42.5093 63.487 42.296C62.7617 42.04 62.399 41.656 62.399 41.144C62.399 40.76 62.719 40.3333 63.359 39.864C63.999 39.352 64.767 38.8613 65.663 38.392C66.559 37.9227 67.4123 37.5387 68.223 37.24C69.0337 36.8987 69.631 36.7067 70.015 36.664C70.143 36.6213 70.399 36.5787 70.783 36.536C71.2097 36.4507 71.615 36.3867 71.999 36.344C72.383 36.2587 72.575 36.216 72.575 36.216C72.9163 35.7893 73.279 35.384 73.663 35C74.047 34.616 74.3883 34.2107 74.687 33.784H74.751L74.815 33.656L75.135 33.72L75.199 33.656C75.5403 33.656 75.903 33.848 76.287 34.232C76.7137 34.616 76.927 34.9787 76.927 35.32C76.927 35.6187 76.735 35.832 76.351 35.96C75.967 36.088 75.775 36.3013 75.775 36.6C75.775 36.7707 76.0523 36.984 76.607 37.24C77.1617 37.496 77.7163 37.9013 78.271 38.456C78.8257 38.968 79.103 39.7573 79.103 40.824C79.103 41.1227 79.0603 41.4213 78.975 41.72C78.9323 41.976 78.9323 42.2747 78.975 42.616L78.847 42.744C78.8897 42.744 78.911 42.7653 78.911 42.808C79.039 42.808 79.167 42.808 79.295 42.808C79.4657 42.7653 79.615 42.744 79.743 42.744C79.9563 42.744 80.319 42.8293 80.831 43C81.343 43.128 81.6843 43.256 81.855 43.384C81.983 43.4693 82.0683 43.5973 82.111 43.768C82.1963 43.896 82.303 44.0027 82.431 44.088V44.152L82.239 44.216C81.983 44.1307 81.7483 44.0453 81.535 43.96C81.3643 43.832 81.151 43.768 80.895 43.768C80.7243 43.768 80.5323 43.8107 80.319 43.896C80.1483 43.9387 79.9777 44.0027 79.807 44.088C79.2097 44.2587 78.6337 44.4933 78.079 44.792C77.567 45.0907 77.247 45.6027 77.119 46.328C76.9483 46.456 76.8203 46.5413 76.735 46.584C76.6923 46.6267 76.6497 46.776 76.607 47.032C76.3083 47.3307 76.0523 47.6507 75.839 47.992C75.6683 48.2907 75.455 48.5893 75.199 48.888C74.943 49.1867 74.6657 49.464 74.367 49.72C74.111 49.976 73.855 50.2533 73.599 50.552C73.4283 50.7227 73.279 50.872 73.151 51C73.023 51.1707 72.895 51.3413 72.767 51.512C72.639 51.6827 72.3617 51.8747 71.935 52.088C71.5083 52.344 71.0603 52.5573 70.591 52.728C70.1643 52.9413 69.8443 53.048 69.631 53.048C69.247 53.048 68.8417 52.8347 68.415 52.408C68.031 52.024 67.839 51.6187 67.839 51.192C67.839 50.2533 68.2657 49.336 69.119 48.44C69.9723 47.5013 70.9537 46.6693 72.063 45.944C73.215 45.176 74.1537 44.6213 74.879 44.28C75.0923 44.1947 75.519 44.024 76.159 43.768C76.8417 43.512 77.2257 43.3413 77.311 43.256C77.567 43 77.7377 42.5947 77.823 42.04C77.951 41.4853 78.015 41.016 78.015 40.632C78.015 39.864 77.8443 39.1813 77.503 38.584C77.1617 37.9867 76.5217 37.688 75.583 37.688C74.943 37.688 74.367 37.9013 73.855 38.328C73.6417 38.4987 73.3217 38.84 72.895 39.352C72.511 39.8213 72.127 40.3333 71.743 40.888C71.359 41.4 71.0603 41.8053 70.847 42.104C69.567 43.9387 68.351 45.816 67.199 47.736C66.047 49.6133 65.023 51.576 64.127 53.624C64.0843 53.6667 64.0203 53.752 63.935 53.88C63.8923 54.008 63.8283 54.0933 63.743 54.136C63.743 54.1787 63.6363 54.456 63.423 54.968C63.2097 55.5227 62.9963 56.0773 62.783 56.632C62.5697 57.1867 62.4417 57.528 62.399 57.656C62.3563 57.7413 62.2923 57.8267 62.207 57.912C62.1643 57.9973 62.1217 58.0827 62.079 58.168C62.0363 58.4667 61.951 58.744 61.823 59C61.7377 59.256 61.6523 59.5333 61.567 59.832C61.3963 60.5573 61.2043 61.3253 60.991 62.136C60.7777 62.9893 60.671 63.8 60.671 64.568C60.671 64.7813 60.6923 65.016 60.735 65.272C60.7777 65.5707 60.8417 65.8267 60.927 66.04C61.0123 66.2107 61.2043 66.36 61.503 66.488C61.8017 66.616 61.951 66.7227 61.951 66.808C61.951 66.8933 61.887 66.936 61.759 66.936ZM69.503 51.064C69.6737 51.064 69.8443 50.9787 70.015 50.808C70.9963 50.2107 71.7857 49.72 72.383 49.336C72.9803 48.9093 73.535 48.44 74.047 47.928C74.6017 47.3733 75.2203 46.584 75.903 45.56C75.9883 45.4747 76.0737 45.368 76.159 45.24C76.2443 45.112 76.287 44.984 76.287 44.856C76.287 44.7707 76.2443 44.6853 76.159 44.6C75.6043 45.0267 75.007 45.4107 74.367 45.752C73.7697 46.0933 73.1937 46.4987 72.639 46.968C72.255 47.2667 71.8923 47.6293 71.551 48.056C71.2097 48.44 70.8257 48.7813 70.399 49.08C70.399 49.208 70.2283 49.528 69.887 50.04C69.5457 50.552 69.3323 50.8507 69.247 50.936C69.3323 51.0213 69.4177 51.064 69.503 51.064ZM125.148 56.248C124.849 56.248 124.529 56.1413 124.188 55.928C123.846 55.7573 123.676 55.48 123.676 55.096C123.676 54.968 123.697 54.8827 123.74 54.84C124.209 53.2187 124.87 51.704 125.724 50.296C126.62 48.888 127.516 47.5013 128.412 46.136C128.668 45.752 128.945 45.368 129.244 44.984C129.542 44.6 129.798 44.1947 130.012 43.768C130.182 43.4693 130.332 43.1707 130.46 42.872C130.588 42.5733 130.737 42.2747 130.908 41.976C131.377 41.208 131.889 40.4613 132.444 39.736C133.041 39.0107 133.574 38.2853 134.044 37.56L135.004 36.088C135.26 35.704 135.686 35.064 136.284 34.168C136.881 33.272 137.564 32.2907 138.332 31.224C139.142 30.1147 139.932 29.0267 140.7 27.96C141.51 26.8933 142.214 25.976 142.812 25.208C143.452 24.44 143.921 23.9707 144.22 23.8C144.689 22.8187 145.372 21.9013 146.268 21.048C147.164 20.1947 147.996 19.4053 148.764 18.68C149.148 18.296 149.766 17.7627 150.62 17.08C151.473 16.3973 152.412 15.6933 153.436 14.968C154.502 14.2 155.569 13.56 156.636 13.048C157.702 12.536 158.662 12.28 159.516 12.28C160.326 12.28 160.988 12.5787 161.5 13.176C162.012 13.7733 162.268 14.8187 162.268 16.312C162.268 16.6107 162.225 16.9733 162.14 17.4C162.054 17.784 161.969 18.1253 161.884 18.424C161.67 18.936 161.372 19.5547 160.988 20.28C160.604 20.9627 160.262 21.56 159.964 22.072C159.793 22.4133 159.58 22.6053 159.324 22.648V22.456C159.324 22.328 159.366 22.2853 159.451 22.328C159.75 21.3893 160.006 20.3867 160.22 19.32C160.476 18.2107 160.604 17.1867 160.604 16.248C160.604 15.6933 160.497 15.1173 160.284 14.52C160.113 13.9227 159.665 13.624 158.94 13.624C157.916 13.624 156.806 13.9867 155.612 14.712C154.417 15.4373 153.222 16.3547 152.028 17.464C150.833 18.5307 149.766 19.5973 148.828 20.664C147.932 21.7307 147.249 22.6053 146.78 23.288C146.737 23.3307 146.694 23.3947 146.652 23.48C146.609 23.5653 146.545 23.6293 146.46 23.672C146.289 23.7573 146.118 23.9493 145.948 24.248C145.777 24.5467 145.649 24.7813 145.564 24.952C144.924 25.336 144.604 25.72 144.604 26.104C144.646 26.4453 144.454 26.7867 144.028 27.128C143.473 27.5547 142.94 28.088 142.428 28.728C141.958 29.3253 141.617 29.9867 141.404 30.712C141.361 30.7547 141.34 30.8187 141.34 30.904C141.34 30.9893 141.297 31.032 141.212 31.032C140.614 31.4587 140.145 31.8853 139.804 32.312C139.505 32.6533 139.206 33.0373 138.908 33.464C138.652 33.848 138.374 34.232 138.076 34.616L134.556 39.608L131.932 43.384C131.761 43.6827 131.569 43.9813 131.356 44.28C131.142 44.536 130.95 44.8133 130.78 45.112L129.628 47.48C129.457 47.8213 129.286 48.2053 129.116 48.632C128.945 49.016 128.753 49.3787 128.54 49.72C128.582 49.8053 128.604 49.9547 128.604 50.168C128.604 50.7227 128.454 51.4693 128.156 52.408C127.9 53.3893 127.516 54.264 127.004 55.032C126.492 55.8427 125.873 56.248 125.148 56.248ZM101.212 53.432C100.7 53.432 100.316 53.1547 100.06 52.6C99.8035 52.0453 99.6755 51.5547 99.6755 51.128C99.6755 49.7627 100.124 48.504 101.02 47.352C101.916 46.1573 102.748 45.0907 103.516 44.152C104.924 42.4027 106.438 40.76 108.06 39.224C109.681 37.688 111.409 36.28 113.244 35C113.329 34.6587 113.436 34.2533 113.564 33.784C113.734 33.272 113.969 32.9307 114.268 32.76C114.353 32.6747 114.396 32.5893 114.396 32.504C114.396 32.3333 114.289 32.2693 114.076 32.312C113.862 32.3547 113.777 32.312 113.82 32.184L113.948 32.056C114.289 31.032 114.609 29.8373 114.908 28.472C115.206 27.1067 115.441 25.7413 115.612 24.376C115.825 22.968 115.932 21.752 115.932 20.728C115.932 20.216 115.868 19.6827 115.74 19.128C115.654 18.5733 115.27 18.296 114.588 18.296C114.204 18.296 113.82 18.36 113.436 18.488C113.094 18.616 112.753 18.744 112.412 18.872C110.022 19.768 107.782 21.0267 105.692 22.648C103.601 24.2693 101.724 26.04 100.06 27.96C98.9928 29.1547 97.9262 30.4773 96.8595 31.928C95.7928 33.336 95.2595 34.9147 95.2595 36.664C95.2595 37.5173 95.3662 38.008 95.5795 38.136C95.7928 38.2213 95.9635 38.4773 96.0915 38.904H95.9635L96.0275 38.968C95.3875 38.584 94.8968 38.0293 94.5555 37.304C94.2568 36.536 94.1075 35.7893 94.1075 35.064C94.1075 33.528 94.6408 31.9493 95.7075 30.328C96.7742 28.7067 98.0968 27.128 99.6755 25.592C101.297 24.056 102.94 22.712 104.604 21.56C106.31 20.3653 107.804 19.448 109.083 18.808C109.51 18.5947 109.916 18.4027 110.3 18.232C110.684 18.0187 111.089 17.8693 111.516 17.784C111.644 17.7413 111.772 17.72 111.9 17.72C112.07 17.72 112.22 17.6987 112.348 17.656C112.433 17.656 112.582 17.6133 112.796 17.528C113.052 17.4427 113.201 17.4 113.244 17.4C113.926 17.4 114.63 17.5493 115.356 17.848C116.124 18.104 116.764 18.5093 117.276 19.064C117.83 19.576 118.129 20.216 118.172 20.984C118.214 21.1547 118.236 21.3467 118.236 21.56C118.236 21.7733 118.236 21.9867 118.236 22.2C118.236 24.0773 117.937 25.912 117.34 27.704C117.084 28.5147 116.828 29.368 116.572 30.264C116.316 31.1173 116.017 31.9067 115.676 32.632C115.633 32.8027 115.569 32.952 115.484 33.08C115.441 33.208 115.398 33.3573 115.356 33.528C116.166 33.016 117.148 32.4613 118.3 31.864C119.494 31.2667 120.71 30.7547 121.948 30.328C123.185 29.8587 124.273 29.624 125.212 29.624C126.321 29.624 127.089 29.9867 127.516 30.712C127.985 31.4373 128.262 32.312 128.347 33.336C128.476 34.3173 128.54 35.2347 128.54 36.088C128.54 38.1787 128.326 40.2907 127.9 42.424C127.473 44.5573 126.769 46.5627 125.788 48.44C125.745 48.4827 125.724 48.5253 125.724 48.568C125.724 48.6107 125.681 48.632 125.596 48.632C125.51 48.632 125.446 48.5467 125.404 48.376C125.361 48.1627 125.34 48.0347 125.34 47.992C125.34 47.7787 125.361 47.6293 125.404 47.544C126.001 46.2213 126.428 45.0267 126.684 43.96C126.982 42.8933 127.132 41.6347 127.132 40.184C127.132 39.4587 127.11 38.712 127.068 37.944C127.025 37.176 126.961 36.408 126.876 35.64C126.79 34.9573 126.62 34.2107 126.364 33.4C126.108 32.5893 125.532 32.184 124.636 32.184C124.465 32.184 124.316 32.2053 124.188 32.248C124.06 32.248 123.932 32.2693 123.804 32.312C121.798 32.824 120.092 33.464 118.684 34.232C117.318 34.9573 115.761 35.8747 114.012 36.984C113.585 38.008 113.116 39.032 112.604 40.056C112.092 41.08 111.58 42.104 111.068 43.128C110.641 44.024 110.172 44.8987 109.66 45.752C109.148 46.6053 108.593 47.416 107.996 48.184C107.868 48.3547 107.718 48.5253 107.548 48.696C107.377 48.8667 107.228 49.0373 107.1 49.208C106.673 49.7627 106.332 50.1253 106.076 50.296C105.862 50.4667 105.521 50.7867 105.052 51.256C104.454 51.8107 103.878 52.3013 103.324 52.728C102.812 53.1973 102.108 53.432 101.212 53.432ZM101.148 52.472C102.385 52.472 103.558 51.9387 104.668 50.872C105.82 49.7627 106.865 48.3973 107.804 46.776C108.785 45.1547 109.617 43.5547 110.3 41.976C111.025 40.3973 111.601 39.1387 112.028 38.2C110.449 39.224 109.148 40.2053 108.124 41.144C107.1 42.04 105.99 43.2347 104.796 44.728C104.369 45.24 103.814 45.9013 103.132 46.712C102.492 47.48 101.894 48.2907 101.34 49.144C100.828 49.9547 100.572 50.68 100.572 51.32C100.572 51.448 100.636 51.6613 100.764 51.96C100.892 52.3013 101.02 52.472 101.148 52.472ZM147.845 35.064C147.675 35.064 147.462 34.9573 147.206 34.744C146.95 34.5307 146.822 34.3387 146.822 34.168C146.822 34.0827 146.971 33.8907 147.27 33.592C147.568 33.2507 147.888 32.9307 148.23 32.632C148.614 32.2907 148.848 32.0773 148.934 31.992C149.275 32.0773 149.446 32.2693 149.446 32.568C149.446 32.7387 149.339 33.0373 149.126 33.464C148.955 33.848 148.742 34.2107 148.486 34.552C148.272 34.8933 148.059 35.064 147.845 35.064ZM141.062 51.64C140.934 51.64 140.806 51.5973 140.678 51.512C140.592 51.4267 140.486 51.3627 140.358 51.32C140.059 51.064 139.846 50.8507 139.718 50.68C139.59 50.5093 139.526 50.2107 139.526 49.784C139.526 48.4187 139.846 47.1173 140.486 45.88C141.126 44.6 141.723 43.384 142.278 42.232C142.363 42.1467 142.384 42.0613 142.342 41.976C142.299 41.848 142.278 41.7413 142.278 41.656C142.278 41.272 142.427 40.8453 142.726 40.376C143.067 39.864 143.451 39.3733 143.878 38.904C144.304 38.4347 144.646 38.0933 144.902 37.88C145.158 37.88 145.542 37.9227 146.054 38.008C146.566 38.0507 146.822 38.2427 146.822 38.584C146.822 38.6267 146.608 38.8827 146.182 39.352C145.755 39.8213 145.499 40.12 145.414 40.248C144.859 41.1013 144.198 42.1253 143.43 43.32C142.704 44.472 142.064 45.6667 141.51 46.904C140.955 48.1413 140.678 49.3147 140.678 50.424C141.19 50.3387 141.723 50.04 142.278 49.528C142.875 48.9733 143.323 48.504 143.622 48.12H143.686V48.184C143.686 48.3547 143.6 48.5253 143.43 48.696C143.259 48.8667 143.131 49.016 143.046 49.144C142.875 49.4427 142.598 49.9333 142.214 50.616C141.872 51.2987 141.488 51.64 141.062 51.64ZM151.129 52.024C150.02 52.024 149.188 51.768 148.633 51.256C148.078 50.744 147.716 50.0827 147.545 49.272C147.374 48.4613 147.289 47.6293 147.289 46.776C147.289 46.0933 147.118 45.7307 146.777 45.688C146.436 45.6027 146.286 45.4533 146.329 45.24L147.673 44.216C147.673 44.216 147.737 43.9813 147.865 43.512C148.036 43.0427 148.206 42.552 148.377 42.04C148.548 41.528 148.654 41.2293 148.697 41.144C148.654 41.016 148.761 40.6533 149.017 40.056C149.316 39.4587 149.636 38.7973 149.977 38.072C150.361 37.304 150.724 36.6427 151.065 36.088C151.406 35.4907 151.62 35.1707 151.705 35.128V35.064H151.641C151.854 34.7227 152.025 34.3813 152.153 34.04C152.324 33.6987 152.558 33.4 152.857 33.144C152.857 33.0587 153.006 32.8027 153.305 32.376C153.646 31.9067 153.86 31.608 153.945 31.48C155.054 29.9867 156.334 28.3653 157.785 26.616C159.278 24.824 160.836 23.4587 162.457 22.52C162.67 22.4347 162.862 22.3493 163.033 22.264C163.204 22.136 163.374 22.0507 163.545 22.008C163.63 22.008 163.673 22.008 163.673 22.008C163.716 21.9653 163.758 21.944 163.801 21.944C164.313 21.944 164.91 22.1573 165.593 22.584C166.318 23.0107 166.681 23.5227 166.681 24.12C166.681 24.5467 166.382 25.2293 165.785 26.168C165.23 27.064 164.526 28.088 163.673 29.24C162.82 30.3493 161.902 31.48 160.921 32.632C159.982 33.7413 159.129 34.7227 158.361 35.576C157.593 36.4293 157.038 37.0267 156.697 37.368C156.569 37.496 156.42 37.624 156.249 37.752C156.078 37.88 155.908 38.0293 155.737 38.2C155.396 38.5413 155.054 38.904 154.713 39.288C154.414 39.672 154.073 40.0347 153.689 40.376C153.134 40.888 152.58 41.4 152.025 41.912C151.513 42.424 150.98 42.9147 150.425 43.384C150.212 43.5547 149.977 43.7467 149.721 43.96C149.508 44.1733 149.294 44.3867 149.081 44.6C148.868 44.856 148.718 45.3253 148.633 46.008C148.548 46.6907 148.505 47.2027 148.505 47.544C148.505 47.928 148.548 48.44 148.633 49.08C148.761 49.6773 148.974 50.2107 149.273 50.68C149.572 51.1493 149.977 51.384 150.489 51.384C150.745 51.384 150.958 51.3413 151.129 51.256C151.342 51.1707 151.556 51.064 151.769 50.936C153.006 50.2533 154.158 49.4853 155.225 48.632C156.292 47.736 157.294 46.7973 158.233 45.816C158.574 45.4747 158.894 45.1333 159.193 44.792C159.534 44.408 159.876 44.0453 160.217 43.704C160.302 43.6187 160.473 43.448 160.729 43.192C160.985 42.936 161.198 42.8293 161.369 42.872C161.326 43.1707 161.156 43.448 160.857 43.704C160.601 43.9173 160.388 44.152 160.217 44.408C159.961 44.792 159.726 45.176 159.513 45.56C159.3 45.9013 159.086 46.2853 158.873 46.712C158.788 46.8827 158.66 47.0533 158.489 47.224C158.318 47.3947 158.169 47.5653 158.041 47.736C157.401 48.504 156.697 49.208 155.929 49.848C155.204 50.488 154.35 51.0213 153.369 51.448C152.985 51.6187 152.622 51.7467 152.281 51.832C151.94 51.96 151.556 52.024 151.129 52.024ZM149.849 42.424C152.366 40.0773 154.82 37.6453 157.209 35.128C159.598 32.568 161.71 29.816 163.545 26.872C163.758 26.5307 164.036 25.9973 164.377 25.272C164.761 24.504 164.953 23.9493 164.953 23.608C164.953 23.352 164.889 23.2027 164.761 23.16C164.249 23.3307 163.801 23.5653 163.417 23.864C163.033 24.1627 162.628 24.4827 162.201 24.824C162.116 24.9093 161.966 25.016 161.753 25.144C161.582 25.2293 161.454 25.3147 161.369 25.4C161.07 25.7413 160.75 26.0827 160.409 26.424C160.068 26.7653 159.726 27.1067 159.385 27.448C158.916 27.96 158.468 28.4933 158.041 29.048C157.614 29.6027 157.188 30.1573 156.761 30.712C155.78 31.9493 154.948 33.0587 154.265 34.04C153.625 35.0213 152.878 36.1947 152.025 37.56C151.854 37.816 151.577 38.2853 151.193 38.968C150.809 39.608 150.446 40.2693 150.105 40.952C149.806 41.592 149.636 42.0613 149.593 42.36L149.849 42.424ZM169.644 56.76C169.217 56.76 168.705 56.504 168.108 55.992C167.553 55.5227 167.212 55.096 167.084 54.712C166.956 54.456 166.849 54.1147 166.764 53.688C166.721 53.304 166.7 52.9627 166.7 52.664C166.7 52.3653 166.721 52.088 166.764 51.832C166.806 51.576 166.849 51.2987 166.892 51C167.105 50.4027 167.361 49.6133 167.66 48.632C167.958 47.608 168.3 46.84 168.684 46.328V46.2H168.556V46.136C168.641 46.0507 168.748 45.944 168.876 45.816C169.004 45.6453 169.089 45.4747 169.132 45.304L168.876 45.368L168.812 45.24H168.748C168.492 45.24 168.364 45.3893 168.364 45.688C168.15 45.7733 167.873 46.0507 167.532 46.52C167.233 46.9893 167.041 47.224 166.956 47.224L166.828 47.288L166.892 47.48H166.828L166.444 47.672C166.358 47.7573 166.294 47.864 166.252 47.992C166.209 48.0773 166.081 48.12 165.868 48.12V48.184C165.526 48.824 164.886 49.5067 163.948 50.232C163.052 50.9573 162.198 51.32 161.388 51.32C160.705 51.32 160.193 51.1493 159.852 50.808C159.51 50.4667 159.19 50.296 158.892 50.296L158.828 50.232C158.7 49.8053 158.529 49.5493 158.316 49.464C158.102 49.336 157.995 48.952 157.995 48.312V47.8L158.123 47.48V47.416C158.123 47.288 158.166 47.0747 158.252 46.776C158.38 46.4347 158.529 46.264 158.7 46.264C158.7 45.7947 158.87 45.2613 159.212 44.664C159.553 44.024 159.937 43.4267 160.364 42.872C160.833 42.2747 161.217 41.8053 161.516 41.464C162.241 40.6107 163.03 39.928 163.884 39.416C164.737 38.904 165.633 38.3707 166.572 37.816V37.88C167.041 37.5813 167.446 37.432 167.788 37.432C167.873 37.3893 168.001 37.368 168.172 37.368C168.513 37.368 168.94 37.5173 169.452 37.816C170.006 38.1147 170.284 38.456 170.284 38.84C170.284 38.9253 170.284 39.0747 170.284 39.288C170.284 39.4587 170.241 39.5653 170.156 39.608L169.708 40.056C169.622 40.1413 169.494 40.3547 169.324 40.696C169.153 41.0373 168.982 41.208 168.812 41.208H168.748L168.812 40.696C168.982 40.4827 169.068 40.2053 169.068 39.864C169.068 39.608 169.004 39.3307 168.876 39.032C168.79 38.6907 168.577 38.52 168.236 38.52C167.937 38.52 167.553 38.6693 167.084 38.968C166.614 39.224 166.252 39.4373 165.996 39.608C165.825 39.736 165.654 39.864 165.484 39.992C165.313 40.0773 165.121 40.184 164.908 40.312C164.225 40.8667 163.457 41.656 162.604 42.68C161.793 43.6613 161.068 44.7067 160.428 45.816C159.83 46.9253 159.532 47.9707 159.532 48.952C159.532 49.2933 159.617 49.6347 159.788 49.976C159.958 50.3173 160.257 50.488 160.684 50.488C161.196 50.488 161.857 50.168 162.668 49.528C163.521 48.8453 164.417 47.992 165.356 46.968C166.294 45.944 167.233 44.8773 168.172 43.768C169.11 42.6587 169.942 41.6347 170.668 40.696C171.436 39.7573 172.012 39.0533 172.396 38.584C172.865 37.944 173.334 37.304 173.804 36.664C174.273 35.9813 174.721 35.32 175.148 34.68C175.233 34.552 175.361 34.3813 175.532 34.168C175.745 33.912 175.852 33.72 175.852 33.592C175.894 33.592 176.065 33.3787 176.364 32.952C176.662 32.5253 177.025 32.0347 177.452 31.48C177.878 30.9253 178.262 30.4133 178.604 29.944C178.945 29.4747 179.158 29.176 179.244 29.048C179.457 28.792 179.649 28.5573 179.82 28.344C179.99 28.088 180.161 27.8107 180.332 27.512L180.46 27.32L180.524 27.384C180.566 27.256 180.737 26.9573 181.036 26.488C181.377 26.0187 181.612 25.7627 181.74 25.72L181.676 25.592C182.102 25.336 182.529 24.888 182.956 24.248C183.382 23.608 183.937 23.1387 184.62 22.84C184.833 22.8827 185.025 22.9253 185.196 22.968C185.409 23.0107 185.601 23.0747 185.772 23.16V23.288C185.857 23.3733 185.921 23.48 185.964 23.608C186.049 23.6933 186.092 23.8 186.092 23.928C186.092 24.184 185.942 24.4827 185.644 24.824C185.388 25.1227 185.174 25.3787 185.004 25.592C184.577 26.1467 184.044 26.7013 183.404 27.256C182.764 27.768 182.166 28.2587 181.612 28.728C181.398 28.9413 181.206 29.176 181.036 29.432C180.908 29.688 180.737 29.9227 180.524 30.136C180.396 30.3067 180.268 30.456 180.14 30.584C180.012 30.6693 179.884 30.776 179.756 30.904C179.542 31.2027 179.329 31.5013 179.116 31.8C178.902 32.0987 178.668 32.376 178.412 32.632C177.857 33.2293 177.345 33.8693 176.876 34.552C176.406 35.192 175.937 35.8747 175.468 36.6C175.212 36.984 174.977 37.3467 174.764 37.688C174.593 38.0293 174.337 38.3707 173.996 38.712C173.868 38.8827 173.74 39.16 173.612 39.544C173.484 39.8853 173.313 40.0773 173.1 40.12C173.057 40.4187 172.844 40.888 172.46 41.528C172.076 42.168 171.798 42.6587 171.628 43C171.542 43.1707 171.436 43.4693 171.308 43.896C171.222 44.3227 171.073 44.5787 170.86 44.664V44.728C170.86 44.8987 170.796 45.0693 170.668 45.24C170.54 45.368 170.433 45.5173 170.348 45.688C170.049 46.328 169.729 47.16 169.388 48.184C169.089 49.1653 168.812 50.168 168.556 51.192C168.342 52.216 168.236 53.0693 168.236 53.752C168.236 54.1787 168.278 54.6053 168.364 55.032C168.492 55.5013 168.748 55.8427 169.132 56.056L169.196 55.992L169.26 56.056H169.324C169.665 55.8853 170.028 55.736 170.412 55.608C170.625 55.5227 170.796 55.3733 170.924 55.16C171.052 54.9893 171.265 54.904 171.564 54.904C171.521 55.0747 171.478 55.224 171.436 55.352C171.436 55.5227 171.393 55.672 171.308 55.8C171.265 56.0133 171.03 56.2267 170.604 56.44C170.177 56.6533 169.857 56.76 169.644 56.76Z" fill="#844424"/>
</svg>
