<svg xmlns="http://www.w3.org/2000/svg" viewBox="0 0 1350 820">
  <g id="text">
    <path d="M722.22,2.63c-7.55,6.72-18.15,13.9-23,23-14.81,27.77-22.12,58.72-27.15,89.58-3,18.23-3.78,36.73-6.49,55a158.73,158.73,0,0,1-8,31.53c-2.27,6.2-6.31,11.66-8.61,17.87-.85,2.3-2.62,6.16-1.66,8.68.8,2.1,3.94,3.35,6.56,4.87,3.5,2,2.67.18,3.88-4,2.07-7.11,5-7.88,8-16,2.73-7.32,4.29-15.39,6-23,3.13-13.91,2.32-28.23,3.93-42.31,3.94-34.46,14.38-69.45,24.17-102.66C704.4,29.6,709.64,13.82,722.22,2.63Z" fill="none" stroke="#f4ac9c" stroke-linecap="round" stroke-linejoin="round" stroke-width="4"/>
    <path d="M528.72,252.12c-1.68,2.19-4,6.38-4.5,14.5-.5,7.5,2,20,8.5,24.5a39.93,39.93,0,0,0,19,7c1.41.13,7.11,1.89,7.5,3.5s-4.63,2.32-5.5,2.37c-2.74.16-10.78-.32-12,3.13-1.51,4.3,6.44,7.09,9,8.07a60.73,60.73,0,0,0,14.66,3.62c3.82.45,8.75,1,12.35-.69,4.25-2,6.46-6.46,8.4-10.5,2.32-4.85,4.51-9.91,5.27-15.26.26-1.85,1.07-5.88-.67-7.24-2.06-1.61-7.08,4.31-9.5,3.5-1.5-.5,3.43-4.84,5.5-9.5,4-9.1.47-18.77,0-20-2.42-6.29-8-10.19-19-18-5.09-3.59-7.89-4.9-9-4s-.09,3.73,0,4c1.52,4.24,6.5,5.44,7.15,5.59a17.41,17.41,0,0,1,3.85,2.41c6.5,5.4,6.9,13.9,7,16,.19,4-.3,13-4,14s-8.5-5.5-10-12c-.76-3.31,2-4.52,3-11,.51-3.37.76-5.06,0-7-1.65-4.23-6.56-5.86-10-7-4.06-1.34-7.46-2.47-11-1-3.19,1.33-4.84,4.43-5.85,6.21a22.76,22.76,0,0,0-2.15,5.79,21,21,0,0,0-1,8c.25,2.4.47,4.53,2,6,2.53,2.44,5.5,1.5,10,2,5.15.58,6.65,7,7,8,1.12,3.15,1.89,9-1,11-3.28,2.26-9.4-1.79-12-4-.7-.59-7.82-6.81-8-16-.09-4.76.5-5.5-.5-9.5A11.45,11.45,0,0,0,528.72,252.12Z" fill="none" stroke="#f4ac9c" stroke-linecap="round" stroke-linejoin="round" stroke-width="4"/>
    <path d="M593.72,293.12a67.13,67.13,0,0,0,20,1c10.48-1.05,20.59-4.74,29.79-9.78,8.88-4.86,18.46-11.25,25.16-18.91,3.34-3.81,6.78-11.59,3.05-16.31-7.5-9.5-19.5-19.5-26-18-.63.15-1.31.71-2,2-4.2,7.95-9.75,17.88-18.5,21.5a29,29,0,0,1-11,2c-8.66,0-17.24-2-25.62-4.12-7.3-1.86-15.23-6.36-19.38-12.88-2.48-3.9,3.75-9.55,5.5-10.5" fill="none" stroke="#f4ac9c" stroke-linecap="round" stroke-linejoin="round" stroke-width="4"/>
    <path d="M645.22,230.62c.89-4.26,6-25.22,5.5-31.5a60.09,60.09,0,0,0-3-14c-1.83-5.55-2.76-8.36-5-11-3.57-4.2-8.69-5.84-16-7-14.85-2.34-30.08-1.19-44.68,2.2-14.42,3.35-38.54,6.85-40.32,25.8-.32,3.51.78,6.72,3,13,3.37,9.51,9.44,20.16,6.5,30.5" fill="none" stroke="#f4ac9c" stroke-linecap="round" stroke-linejoin="round" stroke-width="4"/>
    <path d="M536.72,246.12c-8.26-5.44-12.58-14.59-17.49-22.83-5.24-8.8-11.25-15.54-21.51-18.17a34.09,34.09,0,0,0-11-1c-5.71.49-11.88,4.86-16.69,7.93a84.89,84.89,0,0,0-15.31,13.08c-6.69,7-13.75,13.84-19,22-4.47,7-7.39,14.67-6.27,23.05,3,22.1,30.06,35.84,49.64,39.36,4.73.85,9.89,1.68,14.63.59a21.27,21.27,0,0,0,9-4c1.14-.89,2.65-2.3,7-10,2.43-4.28,4.5-8.75,7-13,2.09-3.53,4.09-7.17,6.5-10.5" fill="none" stroke="#f4ac9c" stroke-linecap="round" stroke-linejoin="round" stroke-width="4"/>
    <path d="M484.72,202.12a92,92,0,0,1-2-9,79.92,79.92,0,0,1-1-22c.67-6.67,1.49-13.65,5.12-19.46,4.46-7.1,12.28-12.43,20.88-11.54,5.82.61,10.64,4.52,15.26,7.76,8.63,6.07,17.42,12.55,23.74,21.24a66.43,66.43,0,0,1,5,8" fill="none" stroke="#f4ac9c" stroke-linecap="round" stroke-linejoin="round" stroke-width="4"/>
    <path d="M476.22,310.62c-4.94,5.6-7.25,13.08-8,20.39a60,60,0,0,0,0,11.21c.42,5,1.09,9.25,6.81,10a58.36,58.36,0,0,0,27.24-2.61c18.26-6.13,35.84-17.12,46.5-33.5" fill="none" stroke="#f4ac9c" stroke-linecap="round" stroke-linejoin="round" stroke-width="4"/>
    <path d="M615.22,294.62c-5.47,13.86-5.71,33.45-6.9,48.3-1.65,20.46.74,42.6-5.6,62.2C598,419.63,589.63,432.53,584,446.66a71.94,71.94,0,0,1-4.18,8c-1.13,2.05-2.62,4.2-3.23,6.47a28.11,28.11,0,0,1-5.42-1.28c-2-.5-4-.92-6-1.26,5.17-9.29,10.43-22.58,15-32.15,4.52-9.34,9.8-18.37,13.12-28.25,6-17.76,5.16-36.94,6-55.65.32-6.72.86-13.43,1.1-20.16.21-6,1.43-14-1.8-19.29-2-3.26-6.6-3.3-7-6a4.21,4.21,0,0,1,1-3" fill="none" stroke="#f4ac9c" stroke-linecap="round" stroke-linejoin="round" stroke-width="4"/>
    <path d="M527.72,579.12a41.36,41.36,0,0,1,9-5c8.38-3.34,17.67-3.13,26.52-3.49,12.14,0,32.53,2.94,41.48-7.51,8.38-9.78,4.47-25.71,2.58-37.08-3.71-22.41-10.67-58.87-36.57-65.91-10.26-2.79-20.32,1-29.54,5.32-7.86,3.72-16.61,8-23.47,13.67-6.68,5.52-10.37,10.46-16,18-9.31,12.49-9.57,25-2.58,38.91,2.55,5.05,5.07,10.11,7.47,15.23,2,4.31,5.85,10,6.11,14.87.21,3.89-2.84,8.27-1,12,.27.55.92,1.85,2,2,1.7.24,2.44-2.61,5-3,1.11-.16,1.5.29,4,1A30.5,30.5,0,0,0,527.72,579.12Z" fill="none" stroke="#f4ac9c" stroke-linecap="round" stroke-linejoin="round" stroke-width="4"/>
    <path d="M503.22,494.62c-5.17-6.35-11.22-12.69-18.09-17.21-5.12-3.37-15.77-8-21.41-3.28-10.11,8.42-13.91,21.12-15,33.81-.84,10.37-1.67,22.74.22,33,1.82,9.84,11.43,9.92,18.43,14.7,5.82,4,9.46,10.15,13.38,15.83a64.5,64.5,0,0,0,14.92,15.69" fill="none" stroke="#f4ac9c" stroke-linecap="round" stroke-linejoin="round" stroke-width="4"/>
    <path d="M455.22,549.62c-11.86.55-23,4.44-31.65,12.73-5.67,5.44-10.15,12-14.54,18.48-7.14,10.56-14,21.62-17.89,33.86-2.57,8.14-4.94,18.08-1.64,26.36s13.89,16.23,21.22,21.07c8.21,5.43,14.79,7.86,26,12,12.31,4.55,16.86,4.91,19,5h0c8.38.38,21.46-1,28-7,7.15-6.57,7.48-17.68,5.5-26.5" fill="none" stroke="#f4ac9c" stroke-linecap="round" stroke-linejoin="round" stroke-width="4"/>
    <path d="M605.22,565.62c3.19,1.14,8.32,4.32,13,9,6.5,6.5,9.62,12.46,10.5,15.5.78,2.66,1.16,4,1,6-.29,3.68-2.28,6.79-9,13a107.23,107.23,0,0,1-15,12,91.87,91.87,0,0,1-16,9,103.34,103.34,0,0,1-20,6c-4.46,1-9.75,2.11-12.5,2.5" fill="none" stroke="#f4ac9c" stroke-linecap="round" stroke-linejoin="round" stroke-width="4"/>
    <path d="M514.54,581.76a5.52,5.52,0,0,1-4.19.17c-5-1.38-9.5-.27-12.63,4.19a12.75,12.75,0,0,0-2,9,14.11,14.11,0,0,0,7.88,10.67,13.77,13.77,0,0,0,7.19,1.42c2.73-.27,5.13-2.16,7.93-1.09,6.5,2.5,11,9.71,12,12s2.37,5.43,1,8a6.86,6.86,0,0,1-4,3c-5.34,1.91-10.82-.87-17-4-.72-.36-8.28-4.24-11-8-.14-.19-1.24-1.73-2.86-3.65a28.61,28.61,0,0,0-2.14-2.35c-1.79-1.74-2.83-2.75-4-3-7.55-1.61-9.51,12.49-9.41,17.06.15,7.33,2.46,15.25,8.53,19.38,4.85,3.31,11.12,3.55,17,3.34,5.06-.19,10.34-.68,15-2.77,2.81-1.25,11-10.59,14.2-6.21a3.82,3.82,0,0,1,.23,3.64,11.07,11.07,0,0,1-2.2,3.08c-4.31,4.81-8.84,9.77-14.82,12.25a16,16,0,0,0-3,1.42c-3.89,2.69-.8,8.15,1.79,10.47,5,4.43,12.23,5.93,18.71,5.33,3.46-.31,5.78-.52,8-2,3.63-2.39,4-6.11,7-19,1.28-5.39,1.78-11.56,4.71-16.39,2.35-3.9,7.27-6.56,7.29-11.61,0-.46,0-2.55-1-3-1.94-.84-4.93,5.52-9,5a3.77,3.77,0,0,1-3-2c-1-2.63,3.44-6.34,4-9,1-4.7.13-8.93-3.33-12.43-2.49-2.52-5.59-4.37-8.13-6.84-3.49-3.37-5.8-7.74-8.8-11.55-3.21-4.07-10.11-9.78-15.74-7.18C516.86,580,515.84,581.12,514.54,581.76Z" fill="none" stroke="#f4ac9c" stroke-miterlimit="10" stroke-width="4"/>
    <path d="M504.22,606.62c-3,2-4,5-5,7" fill="none" stroke="#f4ac9c" stroke-linecap="round" stroke-linejoin="round" stroke-width="4"/>
    <path d="M517.73,582.13c2,1.15,3.85,4.08,5.59,5.7,2.47,2.29,5.16,4.34,7.79,6.44,3.82,3,7.71,6.12,10.77,10,1.13,1.42,4,4.26,1.71,5.08-1.47.52-4.92-2.34-5.87-3.2a16.83,16.83,0,0,1-4-6C529.28,591.73,518.06,582.32,517.73,582.13Z" fill="none" stroke="#f4ac9c" stroke-linecap="round" stroke-linejoin="round" stroke-width="4"/>
    <path d="M520.72,598.12c13.44,9.87,22.6,25.32,24,42" fill="none" stroke="#f4ac9c" stroke-linecap="round" stroke-linejoin="round" stroke-width="4"/>
    <path d="M545.22,673.62A121,121,0,0,1,532.4,703.3c-7.26,11.83-16.58,25.37-31.51,16.22-15.53-9.51-29.25-23.12-36.67-39.9" fill="none" stroke="#f4ac9c" stroke-linecap="round" stroke-linejoin="round" stroke-width="4"/>
    <path d="M457.7,679.45c-.92-.27-9.38,12.59-10.39,13.95Q441.64,701,436,708.68c-7.56,10.19-15.15,20.35-22.89,30.41-9.35,12.13-18.92,24.1-28.91,35.71-9.51,11.06-21.73,21.23-29.63,33.51a30.91,30.91,0,0,1-4.14,5.83c-3,2.89-11,5.14-13.91.84-2.52-3.73,5.78-9.37,8.07-11.63,5.09-5,9.94-10.31,15.14-15.23,3.9-3.68,8.6-9.12,18-20,5.84-6.75,11.76-13.59,19-23,3.23-4.18,7.49-10.12,16-22s8.64-12.23,15-21c4.83-6.64,9.68-13.28,14.48-19.94C445.61,677.45,452.61,678,457.7,679.45Z" fill="none" stroke="#f4ac9c" stroke-miterlimit="10" stroke-width="4"/>
    <path d="M515.22,606.62a38.32,38.32,0,0,1,9,7c2.24,2.66,7,7,7,11" fill="none" stroke="#f4ac9c" stroke-linecap="round" stroke-linejoin="round" stroke-width="4"/>
    <text transform="translate(20.22 460.84)" font-size="149.44" fill="#844424" font-family="Merienda-Regular_0_wt, Merienda" letter-spacing="0.16em">WILD</text>
    <text transform="translate(624.22 459.69)" font-size="148.1" fill="#844424" font-family="Merienda-Regular_0_wt, Merienda" letter-spacing="0.16em">ORCHID</text>
  </g>
</svg>
