<svg width="320" height="320" viewBox="0 0 320 320" fill="none" xmlns="http://www.w3.org/2000/svg">
<g clip-path="url(#clip0_543_2)">
<path d="M320 0H0V320H320V0Z" fill="#F0CDBC"/>
<path d="M56.3826 228.848H52.8787V206.196C52.8787 204.72 53.1438 203.475 53.6743 202.465C54.2171 201.443 54.9936 200.673 56.0039 200.155C57.0139 199.626 58.2134 199.36 59.6022 199.36C60.0064 199.36 60.4104 199.385 60.8143 199.436C61.2311 199.486 61.6351 199.562 62.0265 199.663L61.8372 202.523C61.5719 202.459 61.2689 202.415 60.928 202.389C60.5997 202.364 60.2715 202.352 59.9432 202.352C59.1982 202.352 58.5544 202.504 58.0113 202.806C57.4811 203.097 57.0769 203.526 56.7992 204.094C56.5215 204.662 56.3826 205.364 56.3826 206.196V228.848ZM60.7387 208.357V211.045H49.6401V208.357H60.7387ZM63.7122 218.83V218.393C63.7122 216.917 63.9267 215.546 64.3561 214.284C64.7853 213.009 65.4041 211.904 66.2121 210.969C67.0202 210.023 67.9986 209.29 69.1477 208.772C70.2966 208.242 71.5846 207.977 73.0114 207.977C74.4508 207.977 75.745 208.242 76.8939 208.772C78.0556 209.29 79.0404 210.023 79.8485 210.969C80.6693 211.904 81.2941 213.009 81.7235 214.284C82.1527 215.546 82.3674 216.917 82.3674 218.393V218.83C82.3674 220.307 82.1527 221.677 81.7235 222.939C81.2941 224.202 80.6693 225.307 79.8485 226.254C79.0404 227.188 78.062 227.92 76.9129 228.451C75.7766 228.969 74.4886 229.227 73.0492 229.227C71.6098 229.227 70.3156 228.969 69.1667 228.451C68.0176 227.92 67.0328 227.188 66.2121 226.254C65.4041 225.307 64.7853 224.202 64.3561 222.939C63.9267 221.677 63.7122 220.307 63.7122 218.83ZM67.2159 218.393V218.83C67.2159 219.852 67.3359 220.817 67.5758 221.727C67.8156 222.623 68.1755 223.42 68.6553 224.114C69.1477 224.809 69.7602 225.358 70.4925 225.761C71.2248 226.153 72.077 226.349 73.0492 226.349C74.0088 226.349 74.8486 226.153 75.5681 225.761C76.3004 225.358 76.9065 224.809 77.3863 224.114C77.8661 223.42 78.226 222.623 78.4659 221.727C78.7184 220.817 78.8447 219.852 78.8447 218.83V218.393C78.8447 217.385 78.7184 216.431 78.4659 215.535C78.226 214.625 77.8599 213.824 77.3675 213.13C76.8877 212.422 76.2816 211.865 75.5493 211.462C74.8296 211.058 73.9836 210.857 73.0114 210.857C72.0518 210.857 71.2058 211.058 70.4735 211.462C69.7538 211.865 69.1477 212.422 68.6553 213.13C68.1755 213.824 67.8156 214.625 67.5758 215.535C67.3359 216.431 67.2159 217.385 67.2159 218.393ZM95.341 208.357V211.045H84.2614V208.357H95.341ZM88.0114 203.375H91.5151V223.773C91.5151 224.467 91.6224 224.991 91.8371 225.344C92.0518 225.699 92.3295 225.932 92.6704 226.046C93.0114 226.159 93.3775 226.217 93.7689 226.217C94.0592 226.217 94.3624 226.192 94.6781 226.141C95.0063 226.077 95.2526 226.027 95.4166 225.988L95.4356 228.848C95.1579 228.938 94.7918 229.019 94.3372 229.095C93.8952 229.184 93.3585 229.227 92.7273 229.227C91.8687 229.227 91.0796 229.056 90.3598 228.717C89.6401 228.375 89.0657 227.807 88.6363 227.012C88.2197 226.203 88.0114 225.117 88.0114 223.754V203.375ZM98.144 218.83V218.393C98.144 216.917 98.3585 215.546 98.7879 214.284C99.2173 213.009 99.8359 211.904 100.644 210.969C101.452 210.023 102.431 209.29 103.58 208.772C104.729 208.242 106.016 207.977 107.443 207.977C108.883 207.977 110.177 208.242 111.326 208.772C112.487 209.29 113.472 210.023 114.28 210.969C115.101 211.904 115.726 213.009 116.155 214.284C116.585 215.546 116.799 216.917 116.799 218.393V218.83C116.799 220.307 116.585 221.677 116.155 222.939C115.726 224.202 115.101 225.307 114.28 226.254C113.472 227.188 112.494 227.92 111.345 228.451C110.208 228.969 108.92 229.227 107.481 229.227C106.042 229.227 104.747 228.969 103.599 228.451C102.449 227.92 101.465 227.188 100.644 226.254C99.8359 225.307 99.2173 224.202 98.7879 222.939C98.3585 221.677 98.144 220.307 98.144 218.83ZM101.648 218.393V218.83C101.648 219.852 101.768 220.817 102.008 221.727C102.248 222.623 102.607 223.42 103.087 224.114C103.58 224.809 104.192 225.358 104.924 225.761C105.657 226.153 106.509 226.349 107.481 226.349C108.441 226.349 109.28 226.153 110 225.761C110.732 225.358 111.338 224.809 111.818 224.114C112.298 223.42 112.658 222.623 112.898 221.727C113.15 220.817 113.277 219.852 113.277 218.83V218.393C113.277 217.385 113.15 216.431 112.898 215.535C112.658 214.625 112.292 213.824 111.799 213.13C111.319 212.422 110.713 211.865 109.981 211.462C109.261 211.058 108.415 210.857 107.443 210.857C106.484 210.857 105.638 211.058 104.905 211.462C104.186 211.865 103.58 212.422 103.087 213.13C102.607 213.824 102.248 214.625 102.008 215.535C101.768 216.431 101.648 217.385 101.648 218.393ZM139.318 229.227C137.891 229.227 136.597 228.988 135.436 228.507C134.287 228.015 133.296 227.326 132.462 226.444C131.641 225.559 131.01 224.512 130.568 223.3C130.126 222.088 129.905 220.761 129.905 219.322V218.527C129.905 216.859 130.152 215.376 130.644 214.076C131.136 212.763 131.805 211.652 132.651 210.742C133.497 209.833 134.457 209.144 135.53 208.679C136.604 208.211 137.715 207.977 138.864 207.977C140.328 207.977 141.591 208.229 142.652 208.735C143.725 209.239 144.602 209.947 145.284 210.857C145.966 211.753 146.471 212.814 146.799 214.037C147.127 215.249 147.292 216.576 147.292 218.015V219.588H131.989V216.727H143.788V216.462C143.737 215.554 143.548 214.67 143.22 213.81C142.904 212.951 142.399 212.245 141.705 211.689C141.01 211.134 140.063 210.857 138.864 210.857C138.068 210.857 137.336 211.027 136.667 211.367C135.997 211.696 135.423 212.189 134.943 212.845C134.463 213.502 134.091 214.303 133.826 215.249C133.561 216.198 133.428 217.29 133.428 218.527V219.322C133.428 220.294 133.561 221.209 133.826 222.068C134.103 222.914 134.501 223.659 135.019 224.303C135.549 224.946 136.187 225.453 136.932 225.819C137.689 226.184 138.548 226.368 139.508 226.368C140.745 226.368 141.793 226.114 142.652 225.61C143.51 225.105 144.261 224.429 144.905 223.583L147.026 225.268C146.585 225.937 146.023 226.576 145.341 227.183C144.659 227.788 143.819 228.28 142.822 228.658C141.837 229.039 140.669 229.227 139.318 229.227ZM154.886 211.576V228.848H151.382V208.357H154.792L154.886 211.576ZM161.288 208.242L161.269 211.501C160.979 211.437 160.701 211.4 160.436 211.386C160.183 211.361 159.893 211.349 159.564 211.349C158.756 211.349 158.043 211.475 157.424 211.728C156.806 211.98 156.282 212.333 155.852 212.788C155.423 213.242 155.082 213.785 154.83 214.417C154.59 215.036 154.432 215.717 154.356 216.462L153.371 217.03C153.371 215.792 153.491 214.631 153.731 213.545C153.984 212.459 154.369 211.501 154.886 210.667C155.404 209.821 156.061 209.164 156.856 208.696C157.664 208.217 158.624 207.977 159.735 207.977C159.987 207.977 160.278 208.01 160.606 208.072C160.934 208.122 161.162 208.178 161.288 208.242ZM177.652 212.296V236.726H174.129V208.357H177.348L177.652 212.296ZM191.458 218.432V218.83C191.458 220.319 191.282 221.702 190.928 222.978C190.575 224.24 190.057 225.338 189.375 226.273C188.706 227.208 187.879 227.933 186.894 228.451C185.909 228.969 184.779 229.227 183.504 229.227C182.203 229.227 181.054 229.013 180.057 228.583C179.059 228.154 178.213 227.53 177.519 226.707C176.824 225.887 176.269 224.902 175.852 223.754C175.448 222.606 175.171 221.31 175.019 219.871V217.749C175.171 216.235 175.455 214.877 175.871 213.679C176.288 212.478 176.837 211.456 177.519 210.61C178.213 209.751 179.053 209.102 180.038 208.659C181.023 208.204 182.159 207.977 183.447 207.977C184.735 207.977 185.878 208.229 186.875 208.735C187.872 209.228 188.712 209.934 189.394 210.857C190.076 211.778 190.587 212.883 190.928 214.171C191.282 215.445 191.458 216.867 191.458 218.432ZM187.936 218.83V218.432C187.936 217.41 187.828 216.45 187.614 215.554C187.399 214.644 187.064 213.849 186.61 213.167C186.168 212.472 185.6 211.929 184.905 211.537C184.211 211.134 183.384 210.932 182.424 210.932C181.54 210.932 180.77 211.084 180.114 211.386C179.47 211.689 178.921 212.1 178.466 212.618C178.011 213.122 177.639 213.704 177.348 214.359C177.071 215.003 176.862 215.672 176.723 216.367V221.273C176.976 222.156 177.329 222.99 177.784 223.773C178.239 224.543 178.845 225.168 179.602 225.648C180.36 226.114 181.313 226.349 182.462 226.349C183.409 226.349 184.223 226.153 184.905 225.761C185.6 225.358 186.168 224.809 186.61 224.114C187.064 223.42 187.399 222.623 187.614 221.727C187.828 220.817 187.936 219.852 187.936 218.83ZM208.012 225.344V214.796C208.012 213.987 207.847 213.287 207.519 212.693C207.203 212.086 206.724 211.621 206.08 211.291C205.436 210.963 204.641 210.799 203.693 210.799C202.81 210.799 202.032 210.95 201.363 211.254C200.708 211.557 200.19 211.954 199.81 212.447C199.445 212.94 199.261 213.469 199.261 214.037H195.759C195.759 213.306 195.947 212.579 196.325 211.859C196.705 211.14 197.248 210.49 197.954 209.908C198.673 209.315 199.533 208.849 200.529 208.508C201.54 208.153 202.665 207.977 203.902 207.977C205.392 207.977 206.704 208.229 207.841 208.735C208.989 209.239 209.887 210.003 210.531 211.027C211.186 212.036 211.514 213.306 211.514 214.832V224.378C211.514 225.061 211.572 225.786 211.685 226.556C211.811 227.326 211.995 227.989 212.236 228.546V228.848H208.58C208.403 228.445 208.264 227.908 208.163 227.239C208.062 226.556 208.012 225.926 208.012 225.344ZM208.617 216.425L208.656 218.886H205.114C204.115 218.886 203.225 218.969 202.444 219.132C201.66 219.283 201.005 219.518 200.473 219.834C199.944 220.148 199.538 220.546 199.261 221.027C198.984 221.494 198.844 222.043 198.844 222.673C198.844 223.317 198.99 223.905 199.28 224.436C199.571 224.966 200.006 225.389 200.588 225.705C201.181 226.007 201.906 226.159 202.766 226.159C203.838 226.159 204.784 225.932 205.607 225.478C206.427 225.022 207.077 224.467 207.556 223.81C208.048 223.154 208.314 222.516 208.353 221.898L209.848 223.583C209.761 224.114 209.52 224.7 209.129 225.344C208.737 225.988 208.213 226.607 207.556 227.2C206.912 227.782 206.142 228.269 205.246 228.658C204.362 229.039 203.365 229.227 202.254 229.227C200.865 229.227 199.647 228.955 198.598 228.412C197.562 227.869 196.755 227.144 196.174 226.234C195.605 225.313 195.322 224.283 195.322 223.149C195.322 222.049 195.537 221.083 195.966 220.249C196.395 219.404 197.013 218.704 197.822 218.147C198.631 217.579 199.602 217.15 200.739 216.859C201.875 216.57 203.144 216.425 204.546 216.425H208.617ZM200.208 201.955C200.208 201.222 200.386 200.559 200.739 199.965C201.105 199.372 201.59 198.898 202.197 198.545C202.816 198.192 203.51 198.016 204.28 198.016C205.428 198.016 206.396 198.4 207.178 199.17C207.961 199.94 208.353 200.869 208.353 201.955C208.353 202.686 208.169 203.349 207.802 203.943C207.449 204.525 206.962 204.984 206.344 205.326C205.739 205.653 205.05 205.818 204.28 205.818C203.132 205.818 202.166 205.452 201.383 204.72C200.599 203.987 200.208 203.066 200.208 201.955ZM202.083 201.955C202.083 202.51 202.285 203.016 202.69 203.47C203.107 203.912 203.636 204.133 204.28 204.133C204.924 204.133 205.448 203.918 205.853 203.489C206.268 203.047 206.478 202.535 206.478 201.955C206.478 201.361 206.268 200.844 205.853 200.401C205.448 199.948 204.924 199.719 204.28 199.719C203.636 199.719 203.107 199.948 202.69 200.401C202.285 200.844 202.083 201.361 202.083 201.955ZM232.879 225.685L238.485 208.357H242.064L234.698 228.848H232.349L232.879 225.685ZM228.201 208.357L233.978 225.78L234.376 228.848H232.027L224.603 208.357H228.201ZM253.675 229.227C252.247 229.227 250.954 228.988 249.792 228.507C248.642 228.015 247.651 227.326 246.819 226.444C245.997 225.559 245.366 224.512 244.924 223.3C244.482 222.088 244.261 220.761 244.261 219.322V218.527C244.261 216.859 244.507 215.376 245 214.076C245.492 212.763 246.161 211.652 247.007 210.742C247.853 209.833 248.813 209.144 249.887 208.679C250.96 208.211 252.071 207.977 253.219 207.977C254.685 207.977 255.948 208.229 257.008 208.735C258.081 209.239 258.958 209.947 259.64 210.857C260.323 211.753 260.827 212.814 261.155 214.037C261.483 215.249 261.648 216.576 261.648 218.015V219.588H246.344V216.727H258.143V216.462C258.093 215.554 257.904 214.67 257.575 213.81C257.261 212.951 256.754 212.245 256.06 211.689C255.366 211.134 254.419 210.857 253.219 210.857C252.424 210.857 251.693 211.027 251.024 211.367C250.354 211.696 249.778 212.189 249.299 212.845C248.82 213.502 248.446 214.303 248.182 215.249C247.917 216.198 247.785 217.29 247.785 218.527V219.322C247.785 220.294 247.917 221.209 248.182 222.068C248.46 222.914 248.857 223.659 249.375 224.303C249.904 224.946 250.543 225.453 251.287 225.819C252.046 226.184 252.905 226.368 253.863 226.368C255.1 226.368 256.149 226.114 257.008 225.61C257.866 225.105 258.618 224.429 259.262 223.583L261.382 225.268C260.942 225.937 260.379 226.576 259.696 227.183C259.016 227.788 258.176 228.28 257.177 228.658C256.194 229.039 255.024 229.227 253.675 229.227ZM265.833 208.357H269.357V231.292C269.357 232.541 269.155 233.602 268.75 234.473C268.358 235.345 267.764 236.001 266.969 236.443C266.188 236.897 265.197 237.126 263.996 237.126C263.68 237.126 263.313 237.093 262.898 237.031C262.468 236.967 262.109 236.891 261.818 236.804L261.838 233.98C262.076 234.032 262.348 234.069 262.652 234.095C262.955 234.133 263.22 234.151 263.447 234.151C263.965 234.151 264.4 234.058 264.754 233.868C265.107 233.678 265.373 233.375 265.55 232.958C265.738 232.541 265.833 231.986 265.833 231.292V208.357ZM265.474 202.921C265.474 202.352 265.65 201.872 266.003 201.482C266.356 201.09 266.868 200.894 267.537 200.894C268.22 200.894 268.738 201.09 269.091 201.482C269.444 201.872 269.62 202.352 269.62 202.921C269.62 203.464 269.444 203.931 269.091 204.323C268.738 204.701 268.22 204.889 267.537 204.889C266.868 204.889 266.356 204.701 266.003 204.323C265.65 203.931 265.474 203.464 265.474 202.921Z" fill="#844424"/>
<path fill-rule="evenodd" clip-rule="evenodd" d="M114.424 49.0997C114.442 46.6269 116.455 44.6257 118.945 44.6061H201.055C203.553 44.6061 205.576 46.6198 205.576 49.0997V121.567C205.558 124.04 203.545 126.041 201.055 126.061H118.945C116.448 126.058 114.424 124.047 114.424 121.567V49.0997ZM196.461 53.6568H123.54V117.01L165.889 74.9526C167.669 73.186 170.554 73.186 172.333 74.9526L196.461 98.9545V53.6568ZM132.654 71.7574C132.654 76.7558 136.735 80.808 141.769 80.808C146.803 80.808 150.884 76.7558 150.884 71.7574C150.884 66.759 146.803 62.7068 141.769 62.7068C136.735 62.7068 132.654 66.759 132.654 71.7574Z" fill="#D6A38A"/>
</g>
<defs>
<clipPath id="clip0_543_2">
<rect width="320" height="320" fill="white"/>
</clipPath>
</defs>
</svg>
